<svg preserveAspectRatio="none" width="100%" height="100%" overflow="visible" style="display: block;" viewBox="0 0 191.341 488" fill="none" xmlns="http://www.w3.org/2000/svg">
<g id="Group">
<path id="Vector" d="M10.3498 326.851H22.8449C27.0814 326.851 30.5672 330.283 30.5672 334.573V415.175C30.5672 421.824 38.4504 425.364 43.4377 420.913C76.3647 391.364 109.345 361.762 142.272 332.213C145.544 329.318 145.704 324.277 142.648 321.113C97.7082 274.672 52.8224 228.177 7.88293 181.736C4.93344 178.733 4.98709 173.907 7.9902 170.903C63.3869 115.56 118.784 60.2708 174.18 4.92775C179.007 0.101318 187.265 3.47983 187.319 10.3441L188.552 168.49C188.552 172.78 185.12 176.266 180.83 176.266H167.531C163.294 176.266 159.808 172.834 159.808 168.544V76.1981C159.808 69.3874 151.603 65.9017 146.723 70.6745L43.4913 170.796C40.3809 173.799 40.3809 178.733 43.384 181.79L182.814 321.113C185.925 324.223 185.817 329.318 182.546 332.267C126.828 382.623 71.1628 432.979 15.4444 483.281C10.457 487.785 2.57386 484.246 2.57386 477.543V334.519C2.57386 330.283 6.006 326.797 10.2962 326.797L10.3498 326.851Z" fill="var(--fill-0, #F49B39)"/>
<path id="Vector_2" d="M10.4037 488C8.95573 488 7.50779 487.678 6.16712 487.088C2.3596 485.372 0 481.779 0 477.596V334.573C0 328.835 4.66556 324.169 10.4037 324.169H22.8988C28.6369 324.169 33.3024 328.835 33.3024 334.573V415.174C33.3024 417.212 34.4286 418.928 36.3055 419.786C38.1825 420.644 40.1666 420.323 41.7218 418.928L140.556 330.229C141.575 329.318 142.165 328.031 142.219 326.636C142.219 325.242 141.79 323.955 140.825 322.99L6.05988 183.613C2.14511 179.537 2.19872 172.995 6.16712 169.026L172.357 3.05077C175.36 0.0476612 179.704 -0.810361 183.673 0.798449C187.641 2.40726 190.108 6.05389 190.108 10.3441L191.341 168.49C191.341 171.279 190.269 173.906 188.338 175.891C186.408 177.875 183.726 178.947 180.938 178.947H167.638C161.9 178.947 157.234 174.282 157.234 168.544V76.198C157.234 74.1066 156.108 72.3905 154.178 71.5861C152.247 70.7817 150.209 71.1571 148.708 72.605L45.4757 172.727C44.5105 173.692 43.9742 174.925 43.9742 176.32C43.9742 177.714 44.5104 178.947 45.4221 179.913L184.852 319.236C186.89 321.274 187.963 323.955 187.909 326.851C187.855 329.747 186.622 332.374 184.477 334.305L17.3752 485.319C15.391 487.088 12.9778 488 10.4573 488H10.4037ZM10.35 329.532C7.56141 329.532 5.30911 331.784 5.30911 334.573V477.596C5.30911 479.634 6.43526 481.35 8.31221 482.208C10.1892 483.066 12.227 482.691 13.7285 481.35L180.83 330.337C181.849 329.425 182.439 328.138 182.493 326.743C182.493 325.349 182.01 324.062 181.045 323.043L41.6146 183.72C39.6304 181.736 38.5578 179.108 38.5578 176.32C38.5578 173.531 39.684 170.903 41.7218 168.919L144.954 68.7975C148.011 65.848 152.354 65.0436 156.216 66.7061C160.077 68.3685 162.544 72.0151 162.544 76.3053V168.651C162.544 171.44 164.796 173.692 167.584 173.692H180.884C182.225 173.692 183.512 173.156 184.477 172.19C185.442 171.225 185.925 169.938 185.925 168.597L184.691 10.4513C184.691 8.35984 183.512 6.64377 181.581 5.83936C179.651 5.03496 177.613 5.464 176.111 6.91193L9.97463 172.888C8.04406 174.818 7.99046 177.982 9.92103 179.966L144.686 319.343C146.67 321.381 147.689 324.062 147.582 326.958C147.474 329.8 146.241 332.428 144.149 334.359L45.3149 423.058C42.2045 425.846 37.9143 426.543 34.1604 424.827C30.3529 423.111 27.9933 419.518 27.9933 415.335V334.734C27.9933 331.945 25.741 329.693 22.9524 329.693H10.4573L10.35 329.532Z" fill="var(--fill-0, #F49B39)"/>
</g>
</svg>
