<svg preserveAspectRatio="none" width="100%" height="100%" overflow="visible" style="display: block;" viewBox="0 0 191.29 488" fill="none" xmlns="http://www.w3.org/2000/svg">
<g id="Group">
<path id="Vector" d="M180.939 326.851H168.444C164.207 326.851 160.722 330.283 160.722 334.573V415.175C160.722 421.824 152.838 425.364 147.851 420.913C114.924 391.364 81.9435 361.762 49.0165 332.213C45.7452 329.318 45.5843 324.277 48.6411 321.113C93.5805 274.672 138.466 228.177 183.406 181.736C186.355 178.733 186.302 173.907 183.299 170.903C127.902 115.56 72.5051 60.2708 17.1084 4.92775C12.282 0.101318 4.0234 3.47983 3.96977 10.3441L2.73634 168.49C2.73634 172.78 6.16847 176.266 10.4586 176.266H23.7581C27.9947 176.266 31.4804 172.834 31.4804 168.544V76.1981C31.4804 69.3874 39.6854 65.9017 44.5654 70.6745L147.797 170.796C150.908 173.799 150.908 178.733 147.905 181.79L8.47443 321.113C5.36406 324.223 5.47132 329.318 8.74257 332.267C64.4611 382.623 120.126 432.979 175.844 483.281C180.832 487.785 188.715 484.246 188.715 477.543V334.519C188.715 330.283 185.283 326.797 180.993 326.797L180.939 326.851Z" fill="var(--fill-0, #F49B39)"/>
<path id="Vector_2" d="M180.886 488C178.365 488 175.952 487.088 173.968 485.319L6.86618 334.305C4.7211 332.374 3.54131 329.747 3.43406 326.851C3.38043 323.955 4.45297 321.274 6.49079 319.236L145.921 179.913C146.886 178.947 147.423 177.66 147.369 176.32C147.315 174.979 146.833 173.692 145.867 172.727L42.6354 72.605C41.1339 71.1571 39.096 70.7817 37.1655 71.5861C35.2349 72.3905 34.1087 74.1066 34.1087 76.198V168.544C34.1087 174.282 29.4432 178.947 23.7051 178.947H10.4056C7.61696 178.947 4.98924 177.875 3.00504 175.891C1.02084 173.906 -0.0517089 171.279 0.00191814 168.49L1.23535 10.3441C1.23535 6.05389 3.75581 2.40726 7.67059 0.798449C11.639 -0.810361 15.9292 0.0476612 18.9323 3.05077L185.122 169.026C189.091 172.995 189.144 179.537 185.23 183.613L50.465 322.99C49.4997 323.955 49.017 325.296 49.0707 326.636C49.0707 328.031 49.7142 329.264 50.7331 330.229L149.568 418.928C151.069 420.269 153.107 420.591 154.984 419.786C156.861 418.928 157.987 417.212 157.987 415.174V334.573C157.987 328.835 162.653 324.169 168.391 324.169H180.886C186.624 324.169 191.29 328.835 191.29 334.573V477.596C191.29 481.779 188.93 485.426 185.122 487.088C183.728 487.732 182.28 488 180.886 488ZM39.2033 65.7408C41.831 65.7408 44.4051 66.7597 46.3893 68.6902L149.621 168.812C151.659 170.742 152.732 173.37 152.785 176.212C152.785 179.001 151.713 181.629 149.729 183.613L10.2983 322.936C9.33302 323.901 8.79676 325.242 8.85039 326.636C8.85039 328.031 9.49391 329.318 10.5128 330.229L177.615 481.243C179.116 482.637 181.154 482.959 183.031 482.101C184.908 481.297 186.034 479.581 186.034 477.489V334.466C186.034 331.677 183.782 329.425 180.993 329.425H168.498C165.709 329.425 163.457 331.677 163.457 334.466V415.067C163.457 419.25 161.098 422.897 157.29 424.559C153.482 426.275 149.192 425.578 146.136 422.789L47.301 334.09C45.1559 332.16 43.9761 329.586 43.8688 326.69C43.7616 323.848 44.7805 321.166 46.7647 319.075L181.529 179.698C183.406 177.714 183.406 174.55 181.476 172.619L15.2856 6.64378C13.7841 5.14222 11.7462 4.76685 9.81566 5.57125C7.88509 6.37566 6.7053 8.09173 6.7053 10.1832L5.47188 168.329C5.47188 169.67 5.95452 170.957 6.91981 171.922C7.8851 172.888 9.11852 173.424 10.5128 173.424H23.8123C26.6009 173.424 28.8533 171.172 28.8533 168.383V76.0372C28.8533 71.8006 31.2665 68.1004 35.1813 66.4379C36.5219 65.848 37.9162 65.5799 39.3105 65.5799L39.2033 65.7408Z" fill="var(--fill-0, #F49B39)"/>
</g>
</svg>
