<svg xmlns="http://www.w3.org/2000/svg" viewBox="0 0 30 34.2748" fill="none">
<path d="M12.6776 22.9839H11.8021C11.5053 22.9839 11.261 23.2244 11.261 23.5249V29.1723C11.261 29.6382 10.7087 29.8862 10.3593 29.5743C8.05222 27.504 5.74143 25.4299 3.43439 23.3596C3.20519 23.1567 3.19392 22.8035 3.40809 22.5818C6.55678 19.328 9.70172 16.0703 12.8504 12.8164C13.0571 12.606 13.0533 12.2678 12.8429 12.0574C8.96151 8.1798 5.08013 4.30594 1.19874 0.428326C0.860577 0.0901617 0.28194 0.326877 0.278182 0.807822L0.191762 11.8883C0.191762 12.1889 0.432235 12.4332 0.732826 12.4332H1.66466C1.96149 12.4332 2.20572 12.1927 2.20572 11.8921V5.42188C2.20572 4.9447 2.7806 4.70047 3.12253 5.03487L10.3555 12.0499C10.5734 12.2603 10.5734 12.606 10.363 12.8202L0.593802 22.5818C0.375874 22.7998 0.383389 23.1567 0.61259 23.3634C4.51652 26.8916 8.41669 30.4197 12.3206 33.9442C12.6701 34.2598 13.2224 34.0118 13.2224 33.5421V23.5212C13.2224 23.2244 12.9819 22.9801 12.6813 22.9801L12.6776 22.9839Z" fill="var(--fill-0, #F49B39)"/>
<path d="M17.3255 22.9839H18.201C18.4978 22.9839 18.742 23.2244 18.742 23.5249V29.1723C18.742 29.6382 19.2944 29.8862 19.6438 29.5743C21.9508 27.504 24.2616 25.4299 26.5687 23.3596C26.7979 23.1567 26.8091 22.8035 26.595 22.5818C23.4463 19.328 20.3013 16.0703 17.1526 12.8164C16.946 12.606 16.9498 12.2678 17.1602 12.0574C21.0415 8.1798 24.9229 4.30594 28.8043 0.428326C29.1425 0.0901617 29.7211 0.326877 29.7249 0.807822L29.8113 11.8883C29.8113 12.1889 29.5708 12.4332 29.2702 12.4332H28.3384C28.0416 12.4332 27.7973 12.1927 27.7973 11.8921V5.42188C27.7973 4.9447 27.2225 4.70047 26.8805 5.03487L19.6476 12.0499C19.4296 12.2603 19.4296 12.606 19.64 12.8202L29.4093 22.5818C29.6272 22.7998 29.6197 23.1567 29.3905 23.3634C25.4865 26.8916 21.5864 30.4197 17.6824 33.9442C17.333 34.2598 16.7807 34.0118 16.7807 33.5421V23.5212C16.7807 23.2244 17.0211 22.9801 17.3217 22.9801L17.3255 22.9839Z" fill="var(--fill-0, #F49B39)"/>
<path d="M17.3292 34.2748C17.2278 34.2748 17.1263 34.2523 17.0324 34.2109C16.7656 34.0907 16.6003 33.8389 16.6003 33.5459V23.5249C16.6003 23.1229 16.9272 22.796 17.3292 22.796H18.2047C18.6068 22.796 18.9337 23.1229 18.9337 23.5249V29.1723C18.9337 29.3151 19.0126 29.4353 19.1441 29.4954C19.2756 29.5555 19.4146 29.533 19.5236 29.4353L26.4484 23.2206C26.5198 23.1567 26.5612 23.0665 26.5649 22.9689C26.5649 22.8712 26.5349 22.781 26.4672 22.7133L17.0249 12.9479C16.7506 12.6624 16.7544 12.204 17.0324 11.9259L28.6766 0.296818C28.887 0.0864051 29.1913 0.0262877 29.4694 0.139009C29.7474 0.25173 29.9203 0.507232 29.9203 0.807822L30.0067 11.8883C30.0067 12.0837 29.9315 12.2678 29.7963 12.4069C29.661 12.5459 29.4731 12.621 29.2778 12.621H28.3459C27.9439 12.621 27.617 12.2941 27.617 11.8921V5.42188C27.617 5.27535 27.5381 5.15511 27.4028 5.09875C27.2675 5.04239 27.1248 5.06869 27.0196 5.17014L19.7866 12.1852C19.7189 12.2528 19.6814 12.3392 19.6814 12.4369C19.6814 12.5346 19.7189 12.621 19.7828 12.6887L29.552 22.4503C29.6948 22.5931 29.77 22.781 29.7662 22.9839C29.7625 23.1868 29.676 23.3709 29.5257 23.5062L17.8177 34.0869C17.6787 34.2109 17.5096 34.2748 17.333 34.2748H17.3292ZM17.3255 23.1717C17.1301 23.1717 16.9723 23.3296 16.9723 23.5249V33.5459C16.9723 33.6887 17.0512 33.8089 17.1827 33.869C17.3142 33.9291 17.457 33.9028 17.5622 33.8089L29.2702 23.2281C29.3416 23.1642 29.383 23.0741 29.3867 22.9764C29.3867 22.8787 29.3529 22.7885 29.2853 22.7171L19.516 12.9554C19.377 12.8164 19.3019 12.6323 19.3019 12.4369C19.3019 12.2415 19.3808 12.0574 19.5236 11.9184L26.7565 4.90337C26.9707 4.69671 27.2751 4.64035 27.5456 4.75683C27.8161 4.87331 27.989 5.12881 27.989 5.4294V11.8996C27.989 12.095 28.1468 12.2528 28.3422 12.2528H29.274C29.3679 12.2528 29.4581 12.2152 29.5257 12.1476C29.5934 12.08 29.6272 11.9898 29.6272 11.8959L29.5408 0.815336C29.5408 0.668798 29.4581 0.548562 29.3228 0.492201C29.1876 0.43584 29.0448 0.465901 28.9396 0.56735L17.2992 12.1964C17.1639 12.3317 17.1602 12.5534 17.2954 12.6924L26.7378 22.4578C26.8768 22.6006 26.9482 22.7885 26.9407 22.9914C26.9331 23.1905 26.8467 23.3746 26.7002 23.5099L19.7753 29.7246C19.5574 29.92 19.2568 29.9688 18.9938 29.8486C18.727 29.7284 18.5617 29.4766 18.5617 29.1836V23.5362C18.5617 23.3408 18.4039 23.183 18.2085 23.183H17.333L17.3255 23.1717Z" fill="var(--fill-0, #F49B39)"/>
<path d="M12.6738 34.2748C12.4972 34.2748 12.3281 34.2109 12.1891 34.0869L0.481081 23.5062C0.330785 23.3709 0.248123 23.1868 0.240608 22.9839C0.236851 22.781 0.311998 22.5931 0.454779 22.4503L10.224 12.6887C10.2916 12.621 10.3292 12.5308 10.3254 12.4369C10.3217 12.343 10.2879 12.2528 10.2202 12.1852L2.98726 5.17014C2.88205 5.06869 2.73927 5.04239 2.60401 5.09875C2.46874 5.15511 2.38984 5.27535 2.38984 5.42188V11.8921C2.38984 12.2941 2.06294 12.621 1.6609 12.621H0.729068C0.533684 12.621 0.349572 12.5459 0.210549 12.4069C0.0715253 12.2678 -0.003623 12.0837 0.000134395 11.8883L0.0865549 0.807822C0.0865549 0.507232 0.263152 0.25173 0.537441 0.139009C0.815488 0.0262877 1.11608 0.0864051 1.32649 0.296818L12.9706 11.9259C13.2487 12.204 13.2525 12.6624 12.9782 12.9479L3.53584 22.7133C3.46821 22.781 3.43439 22.8749 3.43815 22.9689C3.43815 23.0665 3.48324 23.153 3.55463 23.2206L10.4795 29.4353C10.5847 29.5292 10.7275 29.5518 10.859 29.4954C10.9905 29.4353 11.0694 29.3151 11.0694 29.1723V23.5249C11.0694 23.1229 11.3963 22.796 11.7983 22.796H12.6738C13.0759 22.796 13.4027 23.1229 13.4027 23.5249V33.5459C13.4027 33.8389 13.2374 34.0945 12.9706 34.2109C12.873 34.256 12.7715 34.2748 12.6738 34.2748ZM2.74679 4.6892C2.9309 4.6892 3.11125 4.76059 3.25028 4.89585L10.4833 11.9109C10.626 12.0461 10.7012 12.2303 10.7049 12.4294C10.7049 12.6248 10.6298 12.8089 10.4908 12.9479L0.721553 22.7096C0.65392 22.7772 0.616347 22.8712 0.620104 22.9689C0.620104 23.0665 0.665193 23.1567 0.736583 23.2206L12.4446 33.8014C12.5498 33.8991 12.6926 33.9216 12.8241 33.8615C12.9556 33.8051 13.0345 33.6849 13.0345 33.5384V23.5174C13.0345 23.322 12.8767 23.1642 12.6813 23.1642H11.8059C11.6105 23.1642 11.4527 23.322 11.4527 23.5174V29.1648C11.4527 29.4578 11.2873 29.7133 11.0206 29.8298C10.7538 29.9501 10.4532 29.9012 10.239 29.7058L3.31415 23.4911C3.16386 23.3559 3.0812 23.1755 3.07368 22.9726C3.06617 22.7735 3.13756 22.5856 3.27658 22.4391L12.7189 12.6736C12.8504 12.5346 12.8504 12.3129 12.7151 12.1777L1.07099 0.548562C0.965784 0.443356 0.823003 0.417055 0.687737 0.473416C0.552471 0.529776 0.469808 0.650013 0.469808 0.796551L0.383388 11.8771C0.383388 11.971 0.417205 12.0612 0.484838 12.1288C0.552471 12.1964 0.638891 12.234 0.736583 12.234H1.66842C1.8638 12.234 2.02161 12.0762 2.02161 11.8808V5.41061C2.02161 5.11378 2.19069 4.85452 2.46498 4.73804C2.55892 4.69671 2.65661 4.67792 2.7543 4.67792L2.74679 4.6892Z" fill="var(--fill-0, #F49B39)"/>
</svg>
