<svg width="428" height="488" viewBox="0 0 428 488" fill="none" xmlns="http://www.w3.org/2000/svg">
  <!-- Left Group -->
  <g transform="translate(0, 0)">
    <path d="M10.3498 326.851H22.8449C27.0814 326.851 30.5672 330.283 30.5672 334.573V415.175C30.5672 421.824 38.4504 425.364 43.4377 420.913C76.3647 391.364 109.345 361.762 142.272 332.213C145.544 329.318 145.704 324.277 142.648 321.113C97.7082 274.672 52.8224 228.177 7.88293 181.736C4.93344 178.733 4.98709 173.907 7.9902 170.903C63.3869 115.56 118.784 60.2708 174.18 4.92775C179.007 0.101318 187.265 3.47983 187.319 10.3441L188.552 168.49C188.552 172.78 185.12 176.266 180.83 176.266H167.531C163.294 176.266 159.808 172.834 159.808 168.544V76.1981C159.808 69.3874 151.603 65.9017 146.723 70.6745L43.4913 170.796C40.3809 173.799 40.3809 178.733 43.384 181.79L182.814 321.113C185.925 324.223 185.817 329.318 182.546 332.267C126.828 382.623 71.1628 432.979 15.4444 483.281C10.457 487.785 2.57386 484.246 2.57386 477.543V334.519C2.57386 330.283 6.006 326.797 10.2962 326.797L10.3498 326.851Z" fill="#F49B39"/>
    <path d="M10.4037 488C8.95573 488 7.50779 487.678 6.16712 487.088C2.3596 485.372 0 481.779 0 477.596V334.573C0 328.835 4.66556 324.169 10.4037 324.169H22.8988C28.6369 324.169 33.3024 328.835 33.3024 334.573V415.174C33.3024 417.212 34.4286 418.928 36.3055 419.786C38.1825 420.644 40.1666 420.323 41.7218 418.928L140.556 330.229C141.575 329.318 142.165 328.031 142.219 326.636C142.219 325.242 141.79 323.955 140.825 322.99L6.05988 183.613C2.14511 179.537 2.19872 172.995 6.16712 169.026L172.357 3.05077C175.36 0.0476612 179.704 -0.810361 183.673 0.798449C187.641 2.40726 190.108 6.05389 190.108 10.3441L191.341 168.49C191.341 171.279 190.269 173.906 188.338 175.891C186.408 177.875 183.726 178.947 180.938 178.947H167.638C161.9 178.947 157.234 174.282 157.234 168.544V76.198C157.234 74.1066 156.108 72.3905 154.178 71.5861C152.247 70.7817 150.209 71.1571 148.708 72.605L45.4757 172.727C44.5105 173.692 43.9742 174.925 43.9742 176.32C43.9742 177.714 44.5104 178.947 45.4221 179.913L184.852 319.236C186.89 321.274 187.963 323.955 187.909 326.851C187.855 329.747 186.622 332.374 184.477 334.305L17.3752 485.319C15.391 487.088 12.9778 488 10.4573 488H10.4037Z" fill="#F49B39"/>
  </g>
  
  <!-- Right Group -->
  <g transform="translate(236.71, 0)">
    <path d="M180.939 326.851H168.444C164.207 326.851 160.722 330.283 160.722 334.573V415.175C160.722 421.824 152.838 425.364 147.851 420.913C114.924 391.364 81.9435 361.762 49.0165 332.213C45.7452 329.318 45.5843 324.277 48.6411 321.113C93.5805 274.672 138.466 228.177 183.406 181.736C186.355 178.733 186.302 173.907 183.299 170.903C127.902 115.56 72.5051 60.2708 17.1084 4.92775C12.282 0.101318 4.0234 3.47983 3.96977 10.3441L2.73634 168.49C2.73634 172.78 6.16847 176.266 10.4586 176.266H23.7581C27.9947 176.266 31.4804 172.834 31.4804 168.544V76.1981C31.4804 69.3874 39.6854 65.9017 44.5654 70.6745L147.797 170.796C150.908 173.799 150.908 178.733 147.905 181.79L8.47443 321.113C5.36406 324.223 5.47132 329.318 8.74257 332.267C64.4611 382.623 120.126 432.979 175.844 483.281C180.832 487.785 188.715 484.246 188.715 477.543V334.519C188.715 330.283 185.283 326.797 180.993 326.797L180.939 326.851Z" fill="#F49B39"/>
    <path d="M180.886 488C178.365 488 175.952 487.088 173.968 485.319L6.86618 334.305C4.7211 332.374 3.54131 329.747 3.43406 326.851C3.38043 323.955 4.45297 321.274 6.49079 319.236L145.921 179.913C146.886 178.947 147.423 177.66 147.369 176.32C147.315 174.979 146.833 173.692 145.867 172.727L42.6354 72.605C41.1339 71.1571 39.096 70.7817 37.1655 71.5861C35.2349 72.3905 34.1087 74.1066 34.1087 76.198V168.544C34.1087 174.282 29.4432 178.947 23.7051 178.947H10.4056C7.61696 178.947 4.98924 177.875 3.00504 175.891C1.02084 173.906 -0.0517089 171.279 0.00191814 168.49L1.23535 10.3441C1.23535 6.05389 3.75581 2.40726 7.67059 0.798449C11.639 -0.810361 15.9292 0.0476612 18.9323 3.05077L185.122 169.026C189.091 172.995 189.144 179.537 185.23 183.613L50.465 322.99C49.4997 323.955 49.017 325.296 49.0707 326.636C49.0707 328.031 49.7142 329.264 50.7331 330.229L149.568 418.928C151.069 420.269 153.107 420.591 154.984 419.786C156.861 418.928 157.987 417.212 157.987 415.174V334.573C157.987 328.835 162.653 324.169 168.391 324.169H180.886C186.624 324.169 191.29 328.835 191.29 334.573V477.596C191.29 481.779 188.93 485.426 185.122 487.088C183.728 487.732 182.28 488 180.886 488Z" fill="#F49B39"/>
  </g>
</svg>
