<svg preserveAspectRatio="none" width="100%" height="100%" overflow="visible" style="display: block;" viewBox="0 0 332.295 174.338" fill="none" xmlns="http://www.w3.org/2000/svg">
<g id="Group">
<g id="Group_2">
<path id="Vector" d="M244.8 174.329C222.88 174.329 200.97 174.359 179.05 174.309C172.1 174.289 168.7 171.979 167.3 166.449C166.93 164.979 166.97 163.389 166.96 161.859C166.94 134.599 166.95 107.349 166.94 80.0886C166.94 76.962 165.47 75.1353 162.53 74.6086C159.44 74.0686 157.76 72.0586 157.7 69.1186C157.55 61.1186 157.62 53.1086 157.66 45.0986C157.68 41.6586 159.93 39.9186 162.76 38.5686C179.22 30.6886 195.65 22.7586 212.09 14.8386C221.32 10.3886 230.59 6.01864 239.76 1.45864C243.28 -0.291364 246.47 -0.581364 250.14 1.21864C275.6 13.6986 301.1 26.0986 326.66 38.3486C330.63 40.2486 332.4 42.7986 332.29 47.1486C332.12 53.8886 332.29 60.6386 332.22 67.3786C332.16 72.8186 331.15 74.1086 325.77 74.6486C322.25 75.0086 322.78 77.3286 322.78 79.5086C322.76 102.269 322.77 125.029 322.77 147.789C322.77 152.989 322.8 158.189 322.75 163.379C322.68 170.459 318.93 174.299 311.81 174.309C289.47 174.359 267.13 174.329 244.79 174.329H244.8ZM245.26 84.9586C261 84.9586 276.74 84.9586 292.47 84.9586C298.98 84.9586 299.13 85.1186 299.13 91.5686C299.13 112.929 299.11 134.289 299.15 155.649C299.15 159.849 300.37 160.929 304.43 160.879C308.26 160.839 309.26 159.819 309.4 155.769C309.44 154.509 309.41 153.239 309.41 151.979C309.41 123.589 309.41 95.2086 309.41 66.8186C309.41 61.9486 309.78 61.4386 314.63 61.3686C317.73 61.3286 319.02 60.1086 318.81 57.0686C318.71 55.5286 318.6 53.9486 318.82 52.4386C319.46 48.0986 317.47 45.9386 313.56 44.1986C292.4 34.7886 271.33 25.1686 250.3 15.4786C246.79 13.8586 243.71 13.9086 240.26 15.4586C219.93 24.6486 199.52 33.6686 179.2 42.8886C170.05 47.0386 170.94 44.9086 170.94 55.8686C170.94 60.9086 171.13 61.0386 176.09 61.3086C179.92 61.5186 180.49 62.0686 180.53 65.7986C180.57 69.7286 180.56 73.6686 180.56 77.5986C180.56 103.169 180.56 128.749 180.56 154.319C180.56 159.609 181.31 160.699 184.91 160.869C189.55 161.089 190.58 160.149 190.59 155.389C190.61 134.309 190.59 113.229 190.59 92.1586C190.59 85.1786 190.82 84.9486 197.61 84.9486C213.49 84.9486 229.37 84.9486 245.25 84.9486L245.26 84.9586ZM211.24 142.069V142.089C213.76 142.089 216.28 142.079 218.8 142.089C221.54 142.109 223.8 141.019 223.66 138.109C223.48 134.459 225.6 130.129 221.28 127.369C220.95 127.159 220.48 127.069 220.07 127.069C214.47 127.029 208.87 126.909 203.27 127.059C200.88 127.119 199.44 128.579 199.46 131.159C199.48 133.399 199.45 135.639 199.46 137.879C199.47 140.669 201.05 141.949 203.67 142.039C206.19 142.129 208.71 142.059 211.23 142.059L211.24 142.069ZM240.02 142.109C240.86 142.109 241.7 142.109 242.54 142.109C252.41 142.069 252.59 141.879 252.16 131.929C252 128.249 251.04 127.139 247.4 127.029C242.78 126.899 238.16 126.939 233.54 126.989C228.84 127.039 228.06 127.889 228.01 132.739C227.99 134.139 227.97 135.539 228 136.939C228.08 141.099 229.01 142.009 233.3 142.089C235.54 142.129 237.78 142.089 240.02 142.109ZM211.71 146.199C210.87 146.199 210.03 146.199 209.19 146.199C198.98 146.199 198.5 146.739 199.48 156.839C199.49 156.979 199.5 157.119 199.5 157.259C199.62 159.629 200.9 160.839 203.24 160.859C208.83 160.889 214.43 160.939 220.02 160.849C223.24 160.799 223.98 158.429 223.71 155.879C223.36 152.559 225.64 148.349 220.91 146.349C220.19 146.039 219.25 146.219 218.41 146.209C216.17 146.199 213.94 146.209 211.7 146.209L211.71 146.199ZM268.34 146.199C265.68 146.199 263.02 146.219 260.36 146.199C257.53 146.179 256 147.789 256.32 150.379C256.75 153.939 254.11 158.459 259.18 160.739C259.42 160.849 259.73 160.839 260.01 160.839C265.61 160.839 271.21 160.879 276.81 160.839C279.68 160.819 280.95 158.949 280.64 156.429C280.23 152.969 282.68 148.639 277.98 146.359C277.28 146.019 276.32 146.199 275.49 146.189C273.11 146.169 270.73 146.189 268.35 146.189L268.34 146.199ZM211.45 122.899C214.26 122.899 217.07 122.929 219.88 122.879C222.77 122.829 223.97 120.969 223.73 118.429C223.4 114.949 225.72 110.619 220.96 108.409C220.25 108.079 219.3 108.249 218.46 108.249C215.37 108.239 212.28 108.249 209.19 108.249C199.05 108.249 198.45 108.969 199.45 119.049C199.71 121.639 200.91 122.889 203.44 122.899C206.11 122.919 208.78 122.899 211.45 122.899ZM239.82 160.879C240.8 160.889 241.79 160.879 242.77 160.899C252.56 161.059 252.31 161.219 252.17 151.009C252.12 147.159 251.19 146.289 247.41 146.209C244.18 146.139 240.95 146.179 237.72 146.209C227.72 146.279 227.82 144.419 227.99 156.919C228.03 159.699 229.45 160.979 232.24 160.899C234.77 160.829 237.29 160.889 239.82 160.889V160.879Z" fill="var(--fill-0, #022859)"/>
<path id="Vector_2" d="M202.37 74.7686C199.85 74.7686 197.33 74.7486 194.81 74.7686C192.11 74.7886 190.64 73.6686 190.61 70.7786C190.53 61.4286 190.19 61.0986 199.54 61.3086C203.04 61.3886 206.54 61.3086 210.04 61.3386C212.58 61.3586 213.89 62.5586 213.89 65.2086C213.92 75.6486 214.61 74.7686 204.88 74.7786C204.04 74.7786 203.2 74.7786 202.36 74.7786C202.36 74.7786 202.36 74.7586 202.36 74.7486L202.37 74.7686Z" fill="var(--fill-0, #022859)"/>
<path id="Vector_3" d="M230.51 74.7586C228.27 74.7586 226.03 74.7786 223.8 74.7586C222.97 74.7486 221.97 74.9086 221.33 74.5186C217.31 72.1286 219.85 68.2186 219.31 65.0186C218.95 62.8686 220.22 61.4486 222.39 61.4086C227.98 61.3086 233.58 61.3686 239.17 61.3786C239.44 61.3786 239.76 61.3986 239.99 61.5286C244.3 63.9486 241.95 68.0186 242.29 71.3686C242.53 73.7486 240.83 74.7986 238.49 74.7686C235.83 74.7386 233.17 74.7686 230.52 74.7686L230.51 74.7586Z" fill="var(--fill-0, #022859)"/>
<path id="Vector_4" d="M259.38 74.7686C257 74.7686 254.62 74.7886 252.25 74.7586C251.42 74.7486 250.38 74.8986 249.78 74.4786C245.95 71.8086 248.42 67.8286 247.94 64.4586C247.61 62.1686 249.41 61.3586 251.48 61.3486C256.65 61.3286 261.83 61.2586 267 61.4186C268.08 61.4486 270 62.3286 270.06 62.9486C270.35 66.3886 270.31 69.8786 270.06 73.3186C270.02 73.8486 268.32 74.5986 267.35 74.6686C264.71 74.8586 262.04 74.7286 259.38 74.7286C259.38 74.7386 259.38 74.7586 259.38 74.7686Z" fill="var(--fill-0, #022859)"/>
<path id="Vector_5" d="M287.82 74.7686C285.16 74.7686 282.5 74.7586 279.85 74.7686C277.4 74.7786 276.31 73.5386 276.31 71.1386C276.33 60.7086 275.44 61.2486 285.07 61.3286C288.29 61.3486 291.51 61.3986 294.72 61.3186C297.61 61.2486 299.03 62.2986 299.16 65.4386C299.55 74.7986 299.64 74.8086 290.34 74.7986C289.5 74.7986 288.66 74.7986 287.82 74.7986V74.7686Z" fill="var(--fill-0, #022859)"/>
</g>
<path id="Vector_6" d="M71.57 45.2186H15.16C6.79003 45.2186 0 52.0086 0 60.3786V113.959C0 122.329 6.79003 129.119 15.16 129.119H71.57C79.94 129.119 86.73 122.329 86.73 113.959V60.3786C86.73 52.0086 79.94 45.2186 71.57 45.2186ZM76.59 73.3586C65.36 84.6286 54.12 95.8886 42.88 107.139C40.97 109.049 39.08 110.989 37.11 112.829C36.5 113.399 35.65 113.719 34.72 114.259C33.85 113.729 33 113.409 32.42 112.819C25.46 105.849 18.61 98.7686 11.59 91.8486C7.13003 87.4586 8.59998 87.3586 11.79 84.0786C13.59 82.2286 15.42 80.3986 17.25 78.5786C19.31 76.5186 20.23 76.5186 22.33 78.6386C26.01 82.3486 29.71 86.0386 33.32 89.8186C34.46 91.0086 35.13 91.0086 36.32 89.8086C45.73 80.2786 55.22 70.8286 64.69 61.3586C66.43 59.6186 67.48 59.6386 69.25 61.3986C71.71 63.8586 74.17 66.3286 76.62 68.7986C78.38 70.5786 78.39 71.5586 76.6 73.3486L76.59 73.3586Z" fill="var(--fill-0, #F49B39)"/>
</g>
</svg>
