<svg preserveAspectRatio="none" width="100%" height="100%" overflow="visible" style="display: block;" viewBox="0 0 89.07 86.16" fill="none" xmlns="http://www.w3.org/2000/svg">
<path id="Vector" d="M73.5 0H15.57C6.97001 0 0 6.96999 0 15.57V70.59C0 79.19 6.97001 86.16 15.57 86.16H73.5C82.1 86.16 89.07 79.19 89.07 70.59V15.57C89.07 6.96999 82.1 0 73.5 0ZM78.66 28.9C67.13 40.47 55.58 52.03 44.04 63.59C42.08 65.55 40.14 67.54 38.12 69.43C37.49 70.02 36.62 70.34 35.66 70.9C34.77 70.36 33.9 70.03 33.29 69.42C26.14 62.26 19.1 54.99 11.9 47.89C7.32002 43.38 8.82998 43.28 12.1 39.91C13.95 38.01 15.83 36.13 17.71 34.26C19.83 32.14 20.77 32.15 22.93 34.33C26.71 38.14 30.51 41.93 34.21 45.81C35.38 47.03 36.07 47.03 37.29 45.8C46.96 36.02 56.7 26.31 66.43 16.58C68.22 14.79 69.3 14.81 71.11 16.62C73.64 19.15 76.17 21.68 78.68 24.22C80.49 26.05 80.5 27.05 78.66 28.89V28.9Z" fill="var(--fill-0, #F49B39)"/>
</svg>
