<svg preserveAspectRatio="none" width="100%" height="100%" overflow="visible" style="display: block;" viewBox="0 0 165.72 49.86" fill="none" xmlns="http://www.w3.org/2000/svg">
<g id="Group">
<path id="Vector" d="M162.8 36.09H2.91998C1.30731 36.09 0 37.3973 0 39.01V46.94C0 48.5527 1.30731 49.86 2.91998 49.86H162.8C164.413 49.86 165.72 48.5527 165.72 46.94V39.01C165.72 37.3973 164.413 36.09 162.8 36.09Z" fill="var(--fill-0, #022859)"/>
<path id="Vector_2" d="M162.8 36.09H2.91998C1.30731 36.09 0 37.3973 0 39.01V46.94C0 48.5527 1.30731 49.86 2.91998 49.86H162.8C164.413 49.86 165.72 48.5527 165.72 46.94V39.01C165.72 37.3973 164.413 36.09 162.8 36.09Z" fill="var(--fill-0, #022859)"/>
<g id="Group_2">
<path id="Vector_3" d="M48.24 0H4.70001C2.11001 0 0.0100098 2.1 0.0100098 4.69V29.34C0.0100098 31.93 2.11001 34.03 4.70001 34.03H22.19V21.96H16.37L26.47 9.27002L36.57 21.96H30.75V34.03H48.24C50.83 34.03 52.93 31.93 52.93 29.34V4.69C52.93 2.1 50.83 0 48.24 0Z" fill="var(--fill-0, #022859)"/>
<path id="Vector_4" d="M104.64 0H61.1C58.51 0 56.41 2.1 56.41 4.69V29.34C56.41 31.93 58.51 34.03 61.1 34.03H78.59V21.96H72.77L82.87 9.27002L92.97 21.96H87.15V34.03H104.64C107.23 34.03 109.33 31.93 109.33 29.34V4.69C109.33 2.1 107.23 0 104.64 0Z" fill="var(--fill-0, #022859)"/>
<path id="Vector_5" d="M161.03 0H117.49C114.9 0 112.8 2.1 112.8 4.69V29.34C112.8 31.93 114.9 34.03 117.49 34.03H134.98V21.96H129.16L139.26 9.27002L149.36 21.96H143.54V34.03H161.03C163.62 34.03 165.72 31.93 165.72 29.34V4.69C165.72 2.1 163.62 0 161.03 0Z" fill="var(--fill-0, #022859)"/>
</g>
</g>
</svg>
