<svg preserveAspectRatio="none" width="100%" height="100%" overflow="visible" style="display: block;" viewBox="0 0 264.398 333.555" fill="none" xmlns="http://www.w3.org/2000/svg">
<g id="Group">
<path id="Vector" d="M153.95 273.245C151.98 266.375 150.11 259.505 148.05 252.735C141.91 232.555 135.68 212.445 129.47 192.265C126 180.925 132.17 172.825 143.61 173.685C149.01 174.085 152.78 177.555 154.65 183.995C157.99 195.405 161.22 206.845 164.52 218.275C164.92 219.645 165.45 220.975 166.15 222.945C169.25 217.745 172.55 213.775 178.76 213.675C184.9 213.605 188.7 217.245 192.37 222.115C194.84 215.715 198.21 210.975 205.34 210.575C212.24 210.175 216.28 214.245 219.08 219.245C221.21 216.005 222.75 212.405 225.38 210.005C232.42 203.565 241.56 205.635 245.02 214.805C249.46 226.575 253.19 238.655 256.76 250.755C259.39 259.725 261.5 268.865 263.4 278.005C268.3 301.755 254.46 317.555 237.15 325.635C212.04 337.305 187.39 336.975 165.05 318.595C152.78 308.485 140.87 297.915 129.2 287.145C125.9 284.075 123.46 279.745 121.6 275.535C119.37 270.535 121.4 265.325 126 262.365C130.37 259.565 134.84 259.565 139.07 262.835C143.61 266.375 148.11 269.935 152.64 273.475C152.74 273.545 152.97 273.445 153.91 273.275L153.94 273.245H153.95Z" fill="var(--fill-0, #022859)"/>
<path id="Vector_2" d="M103.35 78.775H42.08C37.98 78.775 34.51 78.105 33.31 73.405C31.91 67.905 35.21 64.335 42.08 64.305C58.36 64.235 74.63 64.305 90.87 64.305H164.08C170.88 64.305 173.48 66.205 173.59 71.175C173.69 76.415 170.79 78.745 164.12 78.745H103.39L103.36 78.775H103.35Z" fill="var(--fill-0, #022859)"/>
<path id="Vector_3" d="M70.34 247.305C60.6 247.305 50.86 247.175 41.12 247.375C36.38 247.445 33.38 245.905 33.12 240.835C32.89 236.165 35.65 233.595 41.09 233.595C60.77 233.565 80.41 233.565 100.09 233.595C105.86 233.595 108.29 235.795 108.33 240.535C108.36 245.275 105.96 247.305 100.09 247.335C90.15 247.365 80.25 247.335 70.31 247.335L70.34 247.305Z" fill="var(--fill-0, #022859)"/>
<path id="Vector_4" d="M207.41 59.105C207.41 46.995 207.61 34.855 207.14 22.755C206.64 9.915 196.23 0.075 183.39 0.075C130.23 -0.025 77.03 -0.025 23.87 0.075C10.41 0.065 0 10.845 0 24.345V301.055C0 318.635 10.21 328.365 27.78 328.335C63.23 328.235 98.65 328.265 134.1 328.265H155.51C155.64 327.695 155.78 327.095 155.94 326.535C154.44 325.105 152.97 323.635 151.4 322.235C141.46 313.265 131.19 304.655 121.68 295.255C117.04 290.655 113.24 284.945 110.17 279.145C108.4 275.845 106.8 274.905 103.33 274.905C76.92 275.005 50.5 274.975 24.12 274.935C16.68 274.935 14.72 273.005 14.72 265.765V45.495C14.72 38.455 16.65 36.555 23.76 36.555H183.81C191.58 36.555 193.28 38.325 193.28 46.125V201.245C198.02 200.775 202.25 200.375 207.42 199.875V59.105H207.39H207.41ZM92.22 294.125H103.36C106.49 294.125 108.5 295.025 109.53 296.895C110.16 297.725 110.46 298.725 110.36 299.925C110.39 300.295 110.43 300.695 110.43 301.095C110.46 305.835 108.4 307.865 103.36 307.895H91.32C91.05 307.895 90.79 307.865 90.52 307.825C87.49 307.425 85.58 305.655 85.38 301.355V300.355C85.38 300.255 85.38 300.155 85.41 300.055C85.41 299.785 85.48 299.525 85.51 299.255C85.51 299.155 85.51 299.085 85.58 298.985C86.18 295.845 88.45 294.115 92.25 294.115H92.22V294.125ZM132.8 21.915H77C74.23 21.915 70.53 22.745 70.36 18.475C70.19 14.175 73.86 14.705 76.7 14.705C95.48 14.635 114.29 14.635 133.06 14.605C135.83 14.605 139.03 14.435 138.9 18.375C138.77 22.215 135.56 21.945 132.83 21.945L132.8 21.915Z" fill="var(--fill-0, #022859)"/>
<path id="Vector_5" d="M138.21 106.355C147.78 106.355 157.35 106.425 166.93 106.355C170.67 106.325 173.53 107.385 173.8 111.495C174.1 115.795 171.23 117.835 167.36 117.865C147.32 117.995 127.27 117.995 107.23 117.865C103.53 117.865 100.96 115.735 101.16 111.765C101.39 107.795 104.03 106.365 107.86 106.395C117.97 106.465 128.07 106.395 138.18 106.395L138.21 106.365V106.355Z" fill="var(--fill-0, #022859)"/>
<path id="Vector_6" d="M127 144.075C120.7 144.075 114.36 144.005 108.06 144.105C103.96 144.175 101.19 142.505 101.19 138.335C101.19 134.165 104.22 132.665 108.19 132.665C121 132.695 133.8 132.665 146.61 132.665C150.48 132.665 153.58 133.765 153.68 138.235C153.78 143.035 150.65 144.175 146.48 144.105C139.98 144.005 133.51 144.105 127 144.105V144.075Z" fill="var(--fill-0, #022859)"/>
<path id="Vector_7" d="M75.49 99.075H38.69C33.23 99.075 28.8 103.505 28.8 108.965V143.915C28.8 149.375 33.23 153.805 38.69 153.805H75.49C80.95 153.805 85.38 149.375 85.38 143.915V108.965C85.38 103.505 80.95 99.075 75.49 99.075ZM78.77 117.435C71.44 124.785 64.11 132.125 56.78 139.475C55.54 140.725 54.3 141.985 53.02 143.185C52.62 143.555 52.07 143.765 51.46 144.115C50.89 143.765 50.34 143.565 49.96 143.175C45.42 138.625 40.95 134.005 36.37 129.495C33.46 126.635 34.42 126.565 36.5 124.425C37.67 123.215 38.87 122.025 40.06 120.835C41.4 119.495 42 119.495 43.37 120.875C45.77 123.295 48.18 125.705 50.54 128.165C51.28 128.945 51.72 128.945 52.49 128.165C58.63 121.945 64.82 115.785 71 109.605C72.13 108.475 72.82 108.485 73.97 109.635C75.58 111.245 77.18 112.855 78.78 114.465C79.93 115.625 79.93 116.265 78.77 117.435Z" fill="var(--fill-0, #F49B39)"/>
<path id="Vector_8" d="M75.49 166.325H38.69C33.23 166.325 28.8 170.755 28.8 176.215V211.165C28.8 216.625 33.23 221.055 38.69 221.055H75.49C80.95 221.055 85.38 216.625 85.38 211.165V176.215C85.38 170.755 80.95 166.325 75.49 166.325ZM78.77 184.675C71.44 192.025 64.11 199.365 56.78 206.715C55.54 207.965 54.3 209.225 53.02 210.425C52.62 210.795 52.07 211.005 51.46 211.355C50.89 211.005 50.34 210.805 49.96 210.415C45.42 205.865 40.95 201.245 36.37 196.735C33.46 193.875 34.42 193.805 36.5 191.665C37.67 190.455 38.87 189.265 40.06 188.075C41.4 186.735 42 186.735 43.37 188.115C45.77 190.535 48.18 192.945 50.54 195.405C51.28 196.185 51.72 196.185 52.49 195.405C58.63 189.185 64.82 183.025 71 176.845C72.13 175.715 72.82 175.725 73.97 176.875C75.58 178.485 77.18 180.095 78.78 181.705C79.93 182.865 79.93 183.505 78.77 184.675Z" fill="var(--fill-0, #F49B39)"/>
</g>
</svg>
