<svg preserveAspectRatio="none" width="100%" height="100%" overflow="visible" style="display: block;" viewBox="0 0 106.008 90" fill="none" xmlns="http://www.w3.org/2000/svg">
<g id="Alertas y variaciones visibles de inmediato">
<path id="Vector" d="M46.0594 38.1216C45.2325 36.6693 44.4586 35.3335 43.6106 33.8494C46.6212 32.8105 49.5046 31.8034 52.3987 30.807C54.8051 29.9801 57.1903 29.0472 59.6391 28.3688C60.731 28.0613 62.0455 27.9448 63.1162 28.2628C73.6428 31.3476 84.1484 34.5279 94.6433 37.74C95.4277 37.9838 96.244 38.5563 96.7528 39.2029C99.6151 42.7966 102.403 46.4327 105.17 50.09C106.686 52.0935 106.124 53.6625 103.665 54.4469C101.534 55.1254 99.4136 55.8251 97.251 56.4187C96.2652 56.6838 95.9578 57.1608 95.9684 58.1678C96.0108 64.327 95.9472 70.4861 96.0214 76.6346C96.0426 78.2672 95.4277 79.0728 93.9012 79.5817C83.9788 82.8679 74.0775 86.2178 64.1657 89.5677C62.5332 90.1189 60.9854 90.1613 59.2999 89.5889C49.4092 86.1966 39.508 82.8679 29.575 79.5817C28.0167 79.0728 27.423 78.2566 27.476 76.624C27.582 73.7088 27.5078 70.7935 27.5078 67.7829H31.8012C31.8012 70.0514 31.7375 72.3306 31.8436 74.5992C31.8648 75.0975 32.3736 75.8608 32.8294 76.0198C41.4904 78.988 50.1725 81.8821 58.8547 84.7867C58.9925 84.8291 59.1515 84.7867 59.3953 84.7867V56.1537C58.7381 56.6732 58.2292 57.076 57.6885 57.5C56.9041 56.1537 56.1514 54.8498 55.3458 53.4717C55.9712 52.7826 56.5861 52.1147 57.5189 51.0865C52.3987 50.9911 51.6354 46.7719 49.3986 43.4008C53.4058 44.6729 57.0419 45.8814 60.7098 46.9627C61.4307 47.1747 62.3317 47.1536 63.0632 46.9415C69.7099 45.0228 76.3355 43.051 82.9611 41.0792C83.7561 40.846 84.53 40.5704 85.6961 40.1888C84.9328 39.9026 84.53 39.7329 84.1165 39.6057C76.8973 37.4219 69.6781 35.2276 62.4483 33.1074C61.7168 32.8954 60.7946 32.9483 60.0737 33.1922C55.4093 34.7717 50.7662 36.4467 46.0594 38.111V38.1216ZM91.7174 58.2421C91.0283 58.4435 90.5301 58.5707 90.0424 58.7403C85.0812 60.4789 80.1094 62.175 75.18 63.9877C73.399 64.645 72.0422 64.4966 70.717 63.0231C69.0845 61.1997 67.2717 59.546 65.5332 57.8075C65.0456 57.3198 64.5685 56.8427 63.8582 56.1219V84.7549C64.0491 84.8079 64.1657 84.8821 64.2399 84.8609C73.1764 81.9032 82.1024 78.9456 91.0177 75.9456C91.3251 75.8395 91.675 75.2777 91.675 74.9278C91.7174 69.4578 91.7068 63.9772 91.7068 58.2527L91.7174 58.2421ZM65.9572 51.4045C68.4378 53.8957 70.7171 56.1219 72.9114 58.4223C73.6111 59.1537 74.2153 59.1537 75.0952 58.8463C80.7561 56.9382 86.4382 55.0618 92.1096 53.2066C94.5478 52.4116 97.0072 51.6589 99.615 50.8427C97.7917 48.4151 96.0426 46.1676 94.3782 43.846C93.7952 43.0298 93.2545 42.8708 92.311 43.1782C87.9011 44.567 83.4593 45.8708 79.0387 47.2383C74.7348 48.574 70.4414 49.9734 65.9467 51.4045H65.9572Z" fill="var(--fill-0, #F49B39)"/>
<path id="Vector_2" d="M64.0063 10.3261C64.0063 12.9339 64.0063 15.5417 64.0063 18.1495C64.0063 19.7715 63.1265 20.8315 61.8225 20.8633C60.4444 20.8951 59.4903 19.8139 59.4797 18.1071C59.4585 12.8915 59.4585 7.67585 59.4797 2.46022C59.4797 0.92309 60.3384 0.0220069 61.6953 0.000805106C63.1371 -0.0309976 63.9957 0.880695 64.0063 2.50263C64.0275 5.11045 64.0063 7.71824 64.0063 10.3261Z" fill="var(--fill-0, #F49B39)"/>
<path id="Vector_3" d="M78.1482 22.1886C75.8266 22.1568 74.9149 20.3123 75.975 18.5949C78.1482 15.0436 80.3744 11.5347 82.5794 7.994C83.2367 6.93391 83.8515 5.84203 84.5193 4.79254C85.3462 3.48863 86.5547 3.17061 87.6996 3.90207C88.7809 4.59113 89.0777 5.82082 88.3251 7.03992C85.3886 11.7679 82.4416 16.4853 79.4415 21.1815C79.1023 21.7116 78.392 22.019 78.1482 22.1992V22.1886Z" fill="var(--fill-0, #F49B39)"/>
<path id="Vector_4" d="M45.2749 22.2204C44.9993 21.9978 44.2148 21.6373 43.8331 21.0225C40.9179 16.3475 38.0875 11.6301 35.2252 6.9339C34.5044 5.7466 34.7482 4.72893 35.8083 3.93386C36.8684 3.1494 38.1087 3.4038 38.8825 4.6441C41.819 9.3615 44.7343 14.0895 47.5965 18.8599C48.5294 20.4183 47.5434 22.1886 45.2855 22.231L45.2749 22.2204Z" fill="var(--fill-0, #F49B39)"/>
<path id="Vector_5" d="M51.0947 56.705C43.6953 44.1429 36.2323 31.6233 28.7693 19.0931C26.9989 16.1142 24.6137 16.1354 22.8327 19.1567C19.239 25.2522 15.656 31.3689 12.0835 37.475C8.27776 43.9946 4.50383 50.5353 0.666306 57.0442C-0.839019 59.599 0.210461 62.4719 3.77236 62.3659C11.1188 62.1539 18.4758 62.3023 25.8328 62.3023C29.4795 62.3023 33.1368 62.3023 36.7835 62.3023C40.8013 62.3023 44.819 62.3235 48.8367 62.3023C50.5753 62.2917 51.7626 61.4436 51.7944 59.9595C51.8156 58.8782 51.6354 57.6273 51.0947 56.7156V56.705ZM23.2886 32.8954C23.2992 30.9661 24.2851 29.9272 25.9494 29.9802C27.5289 30.0226 28.4088 31.0615 28.43 32.9378C28.4406 35.0156 28.43 37.104 28.43 39.1818C28.43 41.2595 28.4406 43.3479 28.43 45.4257C28.4088 47.2384 27.4229 48.2985 25.8434 48.2667C24.2427 48.2349 23.2992 47.2066 23.2886 45.3939C23.2674 41.2277 23.2674 37.0616 23.2886 32.8954ZM25.7798 56.6838C24.3275 56.6414 23.2462 55.4435 23.2568 53.8852C23.2568 52.3056 24.3169 51.2243 25.854 51.2243C27.3699 51.2243 28.4724 52.3374 28.5042 53.8746C28.5254 55.4011 27.2427 56.7262 25.7798 56.6732V56.6838Z" fill="var(--fill-0, #F49B39)"/>
</g>
</svg>
