<svg preserveAspectRatio="none" width="100%" height="100%" overflow="visible" style="display: block;" viewBox="0 0 100 91.7118" fill="none" xmlns="http://www.w3.org/2000/svg">
<g id="Dashboard con diferencias en tiempo real">
<path id="Vector" d="M61.293 75.2311C62.0729 79.2007 62.7528 82.8802 63.5527 86.5398C63.6327 86.8897 64.3926 87.2897 64.8526 87.2997C66.9823 87.3797 69.1121 87.3197 71.2519 87.3497C73.1616 87.3797 73.8216 87.9796 73.7716 89.5595C73.7316 91.0593 72.9517 91.6992 71.1219 91.7092C57.2835 91.7092 43.4451 91.7292 29.6167 91.6592C28.7069 91.6592 27.507 91.1892 26.9671 90.5193C25.8772 89.1495 26.9371 87.4297 28.7869 87.3797C31.0866 87.3197 33.3763 87.3997 35.676 87.3097C36.146 87.2897 36.9359 86.8897 37.0059 86.5398C37.7858 82.8702 38.4457 79.1807 39.1856 75.2311C38.4057 75.2311 37.8258 75.2311 37.2459 75.2311C27.567 75.2311 17.8882 75.2511 8.2093 75.2511C3.27988 75.2511 0.0602316 72.0615 0.0602316 67.1821C0.0602316 47.4444 0.140225 27.6967 0.000241077 7.95905C-0.0297554 4.1595 2.73994 9.7647e-06 8.07931 0.0100086C25.7472 0.0500039 43.4051 0.0100086 61.0731 0.0100086C71.6318 0.0100086 82.1806 0.00999882 92.7393 0C96.9588 0 99.9885 2.92964 99.9885 7.16914C100.008 27.4068 99.9985 47.6344 99.9885 67.872C99.9885 72.2715 96.9589 75.2411 92.5294 75.2411C82.7905 75.2411 73.0616 75.2311 63.3228 75.2211C62.7829 75.2211 62.2429 75.2211 61.2831 75.2211L61.293 75.2311ZM50.0244 60.7029C64.0227 60.7029 78.0211 60.7029 92.0194 60.7029C95.0591 60.7029 95.879 59.8629 95.879 56.7933C95.879 40.7152 95.879 24.6471 95.879 8.569C95.879 5.48936 94.8591 4.44946 91.7894 4.44946C64.0727 4.44946 36.346 4.45947 8.62923 4.45947C5.23963 4.45947 4.27976 5.40935 4.26976 8.85894C4.26976 24.8271 4.25976 40.7852 4.26976 56.7533C4.26976 59.703 5.27963 60.6929 8.19929 60.6929C22.1376 60.6929 36.086 60.6929 50.0244 60.6929V60.7029Z" fill="var(--fill-0, #F49B39)"/>
<path id="Vector_2" d="M72.7317 14.1783C72.7317 19.1877 72.7317 24.0972 72.7317 29.0166C72.7317 31.6863 73.1317 32.0762 75.7413 32.0762C79.9408 32.0762 84.1403 32.0762 88.4798 32.0762C88.3299 36.4057 86.84 39.9853 83.9304 42.9249C79.6109 47.2944 74.3415 48.5143 68.5622 46.8345C62.4629 45.0547 58.8033 40.6852 57.5535 34.5659C55.5637 24.8871 62.223 15.6482 72.0118 14.1384C72.1718 14.1184 72.3317 14.1483 72.7317 14.1783Z" fill="var(--fill-0, #F49B39)"/>
<path id="Vector_3" d="M32.6266 30.1564C36.8261 25.9669 40.7357 22.0774 44.7852 18.0479C43.7153 16.918 42.6454 15.7681 41.5655 14.6283L41.7855 14.1183C44.6452 13.9783 47.5148 13.8184 50.3745 13.7484C50.6944 13.7484 51.3144 14.3283 51.3044 14.6383C51.2744 17.508 51.1444 20.3676 51.0244 23.6872C49.5946 22.4274 48.5047 21.4875 47.7648 20.8276C43.9053 24.4871 40.1057 28.0967 36.3161 31.7162C35.5262 32.4661 34.7964 33.2961 34.0364 34.066C33.1466 34.9659 32.2067 35.0059 31.3368 34.066C29.8569 32.4562 28.4271 30.8164 26.6473 28.8266C23.4977 32.1162 20.788 34.9558 18.0783 37.7755C17.2084 38.6854 16.3085 39.5654 15.4186 40.4553C14.5787 41.2852 13.6288 41.6451 12.7089 40.6752C11.879 39.7953 12.139 38.8954 12.9589 38.0855C17.1484 33.926 21.3279 29.7465 25.5074 25.587C26.4673 24.6271 27.4072 24.6671 28.3371 25.647C29.7569 27.1468 31.1867 28.6466 32.6266 30.1564Z" fill="var(--fill-0, #F49B39)"/>
<path id="Vector_4" d="M90.3095 28.7166H75.6713V13.6884C82.4805 13.1185 90.6595 20.4776 90.3095 28.7166Z" fill="var(--fill-0, #F49B39)"/>
<path id="Vector_5" d="M49.8346 42.2849C49.8346 45.3945 49.8047 48.5042 49.8446 51.6138C49.8646 53.0637 49.2747 53.7436 47.8049 53.6936C46.495 53.6436 45.1852 53.7036 43.8753 53.6636C42.7155 53.6236 42.0256 52.9937 42.0156 51.8238C41.9856 45.3846 41.9855 38.9453 41.9755 32.5061C41.9755 31.3262 42.6455 30.8563 43.7353 30.8563C45.0452 30.8563 46.355 30.8962 47.6649 30.8363C49.1847 30.7763 49.8546 31.3962 49.8346 32.9561C49.7846 36.0657 49.8146 39.1753 49.8246 42.2849H49.8346Z" fill="var(--fill-0, #F49B39)"/>
<path id="Vector_6" d="M37.0258 46.1546C37.0258 48.0144 36.9958 49.8742 37.0358 51.724C37.0658 53.0738 36.5758 53.7737 35.126 53.7137C33.8161 53.6537 32.5063 53.6937 31.1965 53.7137C29.8266 53.7137 29.2367 53.0638 29.2467 51.694C29.2767 47.9244 29.2667 44.1549 29.2467 40.3853C29.2467 39.0955 29.8366 38.4456 31.1064 38.4356C32.4763 38.4156 33.8362 38.3956 35.206 38.4356C36.3659 38.4656 37.0258 39.0355 37.0158 40.2654C37.0058 42.2351 37.0158 44.1949 37.0158 46.1646H37.0258V46.1546Z" fill="var(--fill-0, #F49B39)"/>
<path id="Vector_7" d="M24.2773 48.6642C24.2773 49.8141 24.2773 50.9539 24.2773 52.1038C24.2773 53.1537 23.7773 53.7336 22.6775 53.7236C21.2576 53.7236 19.8378 53.7236 18.4179 53.7236C17.3381 53.7236 16.7981 53.1737 16.7981 52.1238C16.7881 49.9441 16.7781 47.7543 16.7981 45.5746C16.8081 44.5247 17.3981 43.9747 18.448 43.9647C19.8678 43.9547 21.2876 43.9947 22.7075 43.9647C23.8373 43.9347 24.2873 44.5147 24.2873 45.5646C24.2873 46.6045 24.2873 47.6343 24.2873 48.6742C24.2873 48.6742 24.2773 48.6742 24.2673 48.6742L24.2773 48.6642Z" fill="var(--fill-0, #F49B39)"/>
</g>
</svg>
