<svg preserveAspectRatio="none" width="100%" height="100%" overflow="visible" style="display: block;" viewBox="0 0 72 90.8339" fill="none" xmlns="http://www.w3.org/2000/svg">
<g id="Conteo f&#195;&#173;sico desde el celular">
<path id="Vector" d="M41.9216 74.4094C41.3858 72.5386 40.8772 70.6678 40.3142 68.8242C38.6431 63.3297 36.9448 57.8533 35.2556 52.3589C34.3111 49.271 35.9912 47.0642 39.1063 47.3003C40.5775 47.4093 41.6038 48.3537 42.1124 50.1065C43.0205 53.2125 43.9015 56.3276 44.8005 59.4426C44.9095 59.815 45.0548 60.1782 45.2455 60.7141C46.0901 59.2973 46.9892 58.2166 48.6784 58.1894C50.3495 58.1712 51.3848 59.1611 52.3838 60.487C53.0559 58.7433 53.9731 57.4537 55.9166 57.3448C57.7965 57.2358 58.8954 58.3437 59.6583 59.706C60.2395 58.8251 60.6573 57.8442 61.3748 57.1903C63.291 55.4375 65.7794 56.0006 66.7239 58.4981C67.9318 61.704 68.9489 64.9916 69.9207 68.2883C70.6382 70.7313 71.2103 73.2197 71.728 75.7081C73.063 82.1744 69.2941 86.4792 64.5806 88.677C57.7421 91.8556 51.0306 91.7648 44.9459 86.7607C41.6038 84.0089 38.3616 81.13 35.183 78.1965C34.2839 77.361 33.6209 76.1804 33.1123 75.0361C32.5038 73.6738 33.0578 72.257 34.3111 71.4488C35.5008 70.6859 36.7178 70.6859 37.8712 71.5759C39.1063 72.5386 40.3323 73.5104 41.5674 74.473C41.5947 74.4912 41.6583 74.4639 41.9126 74.4185L41.9216 74.4094Z" fill="var(--fill-0, #F49B39)"/>
<path id="Vector_2" d="M23.9032 51.8867C23.9032 53.4124 23.9123 54.9291 23.9032 56.4548C23.885 58.5164 23.104 59.3156 21.0697 59.3247C18.1726 59.3338 15.2756 59.3429 12.3694 59.3247C10.3532 59.3156 8.97279 58.0987 8.9183 56.1097C8.83657 53.1128 8.84565 50.1157 8.9183 47.1187C8.97279 45.1207 10.1353 44.1036 12.1333 44.0945C15.1302 44.0854 18.1272 44.0763 21.1242 44.0945C23.0677 44.1036 23.8941 44.93 23.9214 46.8735C23.9486 48.5446 23.9214 50.2156 23.9214 51.8867C23.9214 51.8867 23.9032 51.8867 23.8941 51.8867H23.9032ZM15.7841 51.9866C15.2483 51.3872 14.8396 50.7333 14.2493 50.3428C13.8224 50.0612 13.1686 50.1157 12.6146 50.0249C12.6418 50.5971 12.4693 51.2964 12.7327 51.705C13.3048 52.6041 14.1222 53.3489 14.8124 54.1662C15.4844 54.9654 16.0657 54.8927 16.7377 54.1299C18.1272 52.5496 19.5712 51.0148 20.988 49.4528C21.4784 48.9169 21.9506 48.2085 21.1424 47.7363C20.7609 47.5093 19.8164 47.7363 19.435 48.0996C18.1545 49.2984 17.0102 50.6515 15.775 51.9775L15.7841 51.9866Z" fill="var(--fill-0, #F49B39)"/>
<path id="Vector_3" d="M9.0907 33.0057C9.0907 31.4345 9.0453 29.8543 9.09979 28.2831C9.15428 26.603 10.0261 25.7584 11.6881 25.7402C14.8395 25.713 17.9908 25.7039 21.1331 25.7402C22.9313 25.7584 24.0574 26.8936 24.0847 28.719C24.1301 31.716 24.121 34.7221 24.0847 37.7282C24.0665 39.3175 23.2037 40.4436 21.6326 40.5072C18.2451 40.6434 14.8485 40.6525 11.4611 40.5526C9.91715 40.5072 9.1361 39.4628 9.08161 37.8735C9.0362 36.2479 9.07254 34.6222 9.07254 33.0057H9.0907ZM15.2027 34.2589C14.7941 33.7594 14.458 33.1873 13.9676 32.8149C13.5862 32.5243 13.005 32.4789 12.5145 32.3245C12.4691 32.9239 12.1785 33.6504 12.4237 34.0954C12.8869 34.94 13.6861 35.5939 14.2764 36.375C14.9848 37.3013 15.5206 37.156 16.2471 36.3478C17.6548 34.7766 19.1533 33.2872 20.6336 31.7705C21.1694 31.2165 21.787 30.5717 20.9606 29.9541C20.6518 29.7271 19.6891 30.0359 19.2713 30.3991C17.8909 31.5798 16.6286 32.8875 15.2027 34.2589Z" fill="var(--fill-0, #F49B39)"/>
<path id="Vector_4" d="M28.1445 21.4534C22.5865 21.4534 17.0193 21.4534 11.4613 21.4534C10.3442 21.4534 9.39974 21.2718 9.0728 19.9913C8.69136 18.4928 9.59046 17.521 11.4613 17.512C15.8932 17.4938 20.3251 17.512 24.7479 17.512C31.3957 17.512 38.0345 17.512 44.6824 17.512C46.535 17.512 47.2434 18.0296 47.2707 19.3828C47.2979 20.8086 46.5078 21.4443 44.6915 21.4443C39.1788 21.4443 33.6662 21.4443 28.1536 21.4443L28.1445 21.4534Z" fill="var(--fill-0, #F49B39)"/>
<path id="Vector_5" d="M19.1529 67.3439C16.5011 67.3439 13.8492 67.3075 11.1973 67.362C9.90771 67.3802 9.09035 66.9625 9.0177 65.582C8.95413 64.3106 9.7079 63.6112 11.1882 63.6112C16.5465 63.6022 21.8956 63.6022 27.2539 63.6112C28.825 63.6112 29.488 64.2107 29.4971 65.5003C29.5061 66.7899 28.8523 67.3439 27.2539 67.3529C24.5475 67.362 21.8502 67.3529 19.1439 67.3529L19.1529 67.3439Z" fill="var(--fill-0, #F49B39)"/>
<path id="Vector_6" d="M24.2846 83.8453C24.3845 83.8453 24.4662 83.8453 24.5389 83.8453C24.3572 83.8453 24.1756 83.8453 23.9939 83.8453C24.0848 83.8453 24.1847 83.8453 24.2846 83.8453Z" fill="var(--fill-0, #F49B39)"/>
<path id="Vector_7" d="M25.8195 80.0855C27.3906 80.0855 25.2201 80.0855 25.8195 80.0855Z" fill="var(--fill-0, #F49B39)"/>
<path id="Vector_8" d="M56.4795 16.0952C56.4795 12.7985 56.534 9.49277 56.4068 6.19608C56.2706 2.69958 53.4371 0.0204341 49.9406 0.0204341C35.4643 -0.00681135 20.9789 -0.00681135 6.50254 0.0204341C2.83351 0.0204341 0 2.95386 0 6.63199C0 31.7523 0 56.8635 0 81.9837C0 86.7699 2.77903 89.4217 7.56512 89.4127C17.219 89.3854 26.8639 89.3945 36.5178 89.3945C38.4613 89.3945 40.4048 89.3945 42.3483 89.3945C42.3846 89.2401 42.4209 89.0766 42.4663 88.9222C42.0576 88.5317 41.6581 88.1321 41.2312 87.7507C38.5248 85.3077 35.7277 82.9646 33.1394 80.4035C31.877 79.1502 30.8417 77.5972 30.0061 76.017C29.5248 75.1179 29.0889 74.8636 28.1444 74.8636C20.9516 74.8908 13.7589 74.8818 6.57521 74.8727C4.54998 74.8727 4.01415 74.3459 4.01415 72.3752C4.01415 52.377 4.01415 32.3789 4.01415 12.3899C4.01415 10.4736 4.54088 9.95593 6.4753 9.95593C21.0061 9.95593 35.537 9.95593 50.0587 9.95593C52.1747 9.95593 52.6379 10.4373 52.6379 12.5624C52.6379 26.058 52.6379 39.5535 52.6379 53.0491C52.6379 53.6303 52.6379 54.2116 52.6379 54.8019C53.9275 54.6748 55.0809 54.5658 56.4886 54.4295C56.4886 53.4759 56.4886 52.595 56.4886 51.705C56.4886 39.8351 56.4886 27.9651 56.4886 16.0952H56.4795ZM25.1111 80.0947C25.7196 80.0947 26.1464 80.0947 26.4279 80.0947C26.6096 80.0947 27.1 80.0947 28.1444 80.0947C28.9981 80.0947 29.543 80.3399 29.8245 80.8485C29.9971 81.0756 30.0788 81.348 30.0516 81.6749C30.0607 81.7748 30.0697 81.8839 30.0697 81.9928C30.0788 83.2825 29.5157 83.8364 28.1444 83.8455C27.209 83.8455 26.2645 83.8455 25.329 83.8455C25.1747 83.8455 25.0203 83.8455 24.8659 83.8455C24.7932 83.8455 24.7206 83.8364 24.6479 83.8273C23.8215 83.7183 23.3038 83.237 23.2493 82.0654C23.2493 82.011 23.2493 81.9656 23.2493 81.9202C23.2493 81.8748 23.2493 81.8384 23.2493 81.793C23.2493 81.7658 23.2493 81.7385 23.2584 81.7112C23.2584 81.6386 23.2766 81.5659 23.2856 81.4933C23.2856 81.466 23.2856 81.4479 23.3038 81.4207C23.4673 80.567 24.0848 80.0947 25.1202 80.0947H25.1111ZM36.1636 5.96903C33.5571 5.96903 30.9507 5.96903 28.3442 5.96903C25.883 5.96903 23.4219 5.96903 20.9698 5.96903C20.216 5.96903 19.2079 6.19608 19.1625 5.03361C19.1171 3.86206 20.1161 4.00736 20.888 4.00736C26.0011 3.9892 31.1232 3.9892 36.2362 3.98012C36.99 3.98012 37.8619 3.93471 37.8256 5.00636C37.7892 6.05077 36.9174 5.9781 36.1727 5.9781L36.1636 5.96903Z" fill="var(--fill-0, #F49B39)"/>
<path id="Vector_9" d="M37.6346 28.9643C40.2411 28.9643 42.8476 28.9825 45.4541 28.9643C46.4712 28.9552 47.2522 29.2458 47.3249 30.3629C47.4066 31.5345 46.6256 32.0885 45.5721 32.0976C40.114 32.1339 34.6558 32.1339 29.1977 32.0976C28.1896 32.0976 27.4903 31.5163 27.5448 30.4356C27.6084 29.3548 28.3259 28.9643 29.3703 28.9734C32.122 28.9916 34.8738 28.9734 37.6256 28.9734L37.6346 28.9643Z" fill="var(--fill-0, #F49B39)"/>
<path id="Vector_10" d="M34.5832 39.2355C32.8667 39.2355 31.1412 39.2173 29.4247 39.2446C28.3077 39.2627 27.5539 38.8086 27.5539 37.6734C27.5539 36.5109 28.3803 36.1295 29.461 36.1295C32.9484 36.1386 36.4358 36.1295 39.9232 36.1295C40.9767 36.1295 41.8213 36.4292 41.8486 37.6462C41.8758 38.9539 41.0221 39.2627 39.8869 39.2446C38.116 39.2173 36.3541 39.2446 34.5832 39.2446V39.2355Z" fill="var(--fill-0, #F49B39)"/>
</g>
</svg>
