<svg preserveAspectRatio="none" width="100%" height="100%" overflow="visible" style="display: block;" viewBox="0 0 124.616 90" fill="none" xmlns="http://www.w3.org/2000/svg">
<g id="Multiusuario y escalable">
<path id="Vector" d="M59.6785 56.1168C54.2452 57.7742 55.0676 62.2978 55.0925 66.7342C54.4445 66.7342 53.8838 66.7342 53.3231 66.7342C36.7365 66.7342 20.1624 66.7342 3.57588 66.7342C1.00877 66.7342 -0.000597962 65.7373 0.0243255 63.1827C0.0492489 60.4411 -0.150187 57.6496 0.285973 54.9829C1.09598 50.1228 4.16159 46.6335 8.09949 43.8919C12.81 40.6145 18.1561 38.9945 23.7639 38.3465C31.5649 37.4492 39.2413 38.0101 46.5688 41.113C50.569 42.8078 54.1579 45.1132 56.8123 48.6648C58.4447 50.858 59.4791 53.288 59.6785 56.1293V56.1168Z" fill="var(--fill-0, #F49B39)"/>
<path id="Vector_2" d="M124.616 58.5714C124.616 67.5189 124.616 76.4788 124.616 85.4263C124.616 88.5292 123.544 89.5884 120.417 89.6009C117.725 89.6134 115.046 89.6009 112.354 89.6259C109.002 89.6383 108.017 88.6663 108.017 85.2393C108.017 77.1766 108.017 69.1264 108.017 61.0637C108.017 51.219 108.017 41.3618 108.005 31.5171C108.005 28.8254 109.101 27.6291 111.718 27.5792C114.759 27.5294 117.812 27.5294 120.853 27.5792C123.769 27.6291 124.616 28.5512 124.616 31.5171C124.616 40.5269 124.616 49.5367 124.616 58.5589V58.5714Z" fill="var(--fill-0, #F49B39)"/>
<path id="Vector_3" d="M12.935 17.2737C13.0347 7.56602 20.7235 -0.135277 30.1944 0.00180185C39.5781 0.13888 47.2794 8.2639 47.1797 17.9217C47.08 27.1558 39.1544 34.8446 29.7832 34.7698C20.4245 34.7075 12.8353 26.8318 12.935 17.2737Z" fill="var(--fill-0, #F49B39)"/>
<path id="Vector_4" d="M99.5935 67.7058C99.5935 73.8494 99.5935 79.993 99.5935 86.1491C99.5935 88.7785 98.7211 89.6508 96.0418 89.6508C93.0012 89.6508 89.9606 89.6633 86.9075 89.6508C84.4151 89.6384 83.2188 88.5417 83.2188 86.0992C83.1939 73.6874 83.1939 61.2755 83.2188 48.8637C83.2188 46.6829 84.2033 45.7608 86.4214 45.7608C89.649 45.7608 92.8642 45.7359 96.0917 45.7608C98.4968 45.7857 99.5561 46.8574 99.5686 49.275C99.5811 55.4186 99.5686 61.5746 99.5686 67.7182H99.5935V67.7058Z" fill="var(--fill-0, #F49B39)"/>
<path id="Vector_5" d="M79.53 17.7097C79.4552 25.436 73.4237 31.3179 65.6601 31.2432C58.1955 31.1684 52.0145 24.8378 52.1392 17.4107C52.2762 9.57227 58.3202 3.62804 66.0839 3.69035C73.6731 3.75266 79.5924 9.93365 79.5177 17.7097H79.53Z" fill="var(--fill-0, #F49B39)"/>
<path id="Vector_6" d="M74.8191 75.208C74.8191 78.9714 74.8191 82.7348 74.8191 86.4982C74.8191 88.8161 73.7723 89.9252 71.4793 89.9626C68.1396 90.0125 64.7875 90.0125 61.4477 89.9626C59.4539 89.9377 58.2076 88.7289 58.1951 86.6852C58.1577 79.0462 58.1453 71.3947 58.1951 63.7557C58.2076 61.388 59.2669 60.3412 61.5973 60.2914C64.8747 60.2166 68.1645 60.2166 71.4419 60.2789C73.8221 60.3288 74.8067 61.4503 74.8191 63.9177C74.8191 67.6811 74.8191 71.4445 74.8191 75.208Z" fill="var(--fill-0, #F49B39)"/>
<path id="Vector_7" d="M51.3911 37.661C60.6252 30.508 80.7883 33.4739 85.5487 42.2095C84.0782 43.1317 82.2089 43.7298 81.3242 45.0134C80.3646 46.3966 80.1901 48.403 79.9035 50.1725C79.6917 51.5059 79.8661 52.9016 79.8661 54.4344H65.0118C63.2921 46.7829 58.6065 41.2499 51.4036 37.661H51.3911Z" fill="var(--fill-0, #F49B39)"/>
</g>
</svg>
