<svg preserveAspectRatio="none" width="100%" height="100%" overflow="visible" style="display: block;" viewBox="0 0 108.584 90.0001" fill="none" xmlns="http://www.w3.org/2000/svg">
<g id="Registro r&#195;&#161;pido de bodegas e &#195;&#173;tems">
<path id="Vector" d="M45.0212 84.6695V90C44.4893 90 43.9356 90 43.3928 90C31.6245 90 19.8671 90 8.09883 90C3.13748 90 0.0108563 86.8734 0 81.8686C0 60.9701 0 40.0608 0 19.1623C0 13.5604 2.93121 10.6183 8.51137 10.6075C9.0759 10.6075 9.64043 10.6075 10.3135 10.6075V15.6991C9.65129 15.6991 8.9999 15.6991 8.33767 15.6991C5.87328 15.7208 5.02648 16.5676 5.02648 18.9886C5.02648 29.3238 5.02648 39.6591 5.03734 49.9943C5.03734 60.221 5.03734 70.4368 5.03734 80.6635C5.03734 84.0507 5.65615 84.6587 8.9999 84.6587C20.931 84.6587 32.873 84.6587 45.0104 84.6587L45.0212 84.6695Z" fill="var(--fill-0, #F49B39)"/>
<path id="Vector_2" d="M26.2398 6.54712C26.4026 6.03687 26.5437 5.66777 26.6414 5.27694C27.4448 1.83548 29.7789 -0.0426889 33.1878 0.000736535C36.423 0.0441619 38.9742 2.08516 39.5605 5.33121C39.7559 6.4277 40.2444 6.56884 41.1455 6.55798C44.0007 6.52541 46.8559 6.53626 49.7112 6.54712C51.6219 6.54712 52.2841 7.20937 52.295 9.10923C52.3167 11.6822 52.295 14.2443 52.295 16.8172C52.295 18.348 51.5676 19.1188 49.9934 19.1188C38.7463 19.1188 27.4991 19.1188 16.2519 19.1296C14.6452 19.1296 13.9721 18.348 13.983 16.8172C13.983 14.1357 13.9938 11.4542 13.983 8.76182C13.983 7.16594 14.7972 6.52543 16.3279 6.53628C19.6282 6.558 22.9394 6.53628 26.2398 6.53628V6.54712Z" fill="var(--fill-0, #F49B39)"/>
<path id="Vector_3" d="M60.5242 67.5707C60.5242 69.3945 60.5785 71.0447 60.5133 72.684C60.4482 74.3125 61.2298 74.9856 62.7714 74.9422C62.9994 74.9422 63.2274 74.9422 63.4554 74.9422C66.4409 74.9422 66.5603 74.8228 66.5711 71.8915C66.5711 70.5345 66.5711 69.1666 66.5711 67.5815C69.5784 67.5815 72.401 67.5273 75.2237 67.6033C76.3961 67.6358 76.8738 68.526 76.8738 69.6225C76.8738 75.333 76.8738 81.0326 76.8521 86.743C76.8521 88.2521 76.1464 89.0011 74.5288 88.9903C67.0488 88.9469 59.5797 88.9577 52.0997 88.9903C50.5689 88.9903 49.885 88.3172 49.885 86.8516C49.885 81.0868 49.885 75.3221 49.885 69.5574C49.885 68.45 50.3084 67.6032 51.5134 67.5815C54.4663 67.5381 57.4193 67.5707 60.5242 67.5707Z" fill="var(--fill-0, #F49B39)"/>
<path id="Vector_4" d="M91.758 67.5706C91.758 69.503 91.7689 71.1532 91.758 72.8033C91.7472 74.2147 92.442 74.8444 93.8424 74.9312C97.7941 75.1809 98.0113 75.0072 98.0221 71.0555C98.0221 69.9699 98.0221 68.8951 98.0221 67.6032C101.149 67.6032 104.21 67.5272 107.261 67.6792C107.728 67.7009 108.509 68.7539 108.52 69.3402C108.618 75.2786 108.574 81.217 108.574 87.1446C108.574 88.4582 107.869 88.9576 106.631 88.9576C98.9775 88.9576 91.3346 88.9576 83.6809 88.9576C82.237 88.9576 81.5965 88.1868 81.5965 86.8298C81.5856 81.0108 81.5965 75.1809 81.5965 69.3619C81.5965 68.2763 82.1502 67.5923 83.2141 67.5706C85.9933 67.5163 88.7834 67.5489 91.7797 67.5489L91.758 67.5706Z" fill="var(--fill-0, #F49B39)"/>
<path id="Vector_5" d="M83.8546 42.0474C83.8546 43.9256 83.8872 45.6843 83.8546 47.443C83.8221 49.028 84.5169 49.6903 86.1127 49.7011C90.1404 49.7228 90.1404 49.7662 90.1296 45.8145C90.1296 44.6203 90.1296 43.4261 90.1296 42.1017C92.9739 42.1017 95.7532 42.0257 98.5107 42.1668C99.0101 42.1885 99.8786 43.1222 99.8894 43.6433C99.9871 49.636 99.9546 55.6178 99.9437 61.6105C99.9437 62.8264 99.2923 63.3041 98.0981 63.3041C90.629 63.2824 83.149 63.2824 75.6798 63.3041C74.3119 63.3041 73.7039 62.6093 73.7039 61.3066C73.7039 55.5418 73.7039 49.7771 73.7039 44.0232C73.7039 42.9159 74.1165 42.0908 75.3541 42.0691C78.1333 42.0365 80.9234 42.0691 83.8655 42.0691L83.8546 42.0474Z" fill="var(--fill-0, #F49B39)"/>
<path id="Vector_6" d="M55.9103 10.7594C62.587 9.89094 66.3324 13.1587 66.3216 19.5965C66.3216 33.2429 66.3216 46.9002 66.3216 60.5467C66.3216 61.274 66.3216 62.0014 66.3216 62.8265H61.3277C61.2951 62.1534 61.2408 61.5346 61.2299 60.9266C61.2299 47.0522 61.2299 33.1669 61.2299 19.2925C61.2299 16.2962 60.6763 15.7208 57.6473 15.6991C57.1371 15.6991 56.6269 15.6991 55.8995 15.6991C55.8995 14.798 55.8995 14.0163 55.8995 13.2455C55.8995 12.4747 55.8995 11.6605 55.8995 10.7594H55.9103Z" fill="var(--fill-0, #F49B39)"/>
<path id="Vector_7" d="M18.6081 35.8592C21.0616 33.3623 23.1243 31.2562 25.1978 29.15C26.696 27.6301 27.8251 27.4239 28.8347 28.4769C29.7467 29.4323 29.5404 30.9304 28.2376 32.2223C25.7841 34.6759 23.3197 37.1294 20.8227 39.5504C19.1834 41.1354 18.2064 41.1028 16.6105 39.5504C15.3946 38.3562 14.1678 37.162 12.9628 35.946C11.7251 34.6867 11.584 33.3188 12.5394 32.3526C13.4947 31.3864 14.6346 31.495 15.9374 32.8086C16.8059 33.6988 17.5767 34.6868 18.6081 35.8701V35.8592Z" fill="var(--fill-0, #F49B39)"/>
<path id="Vector_8" d="M18.5644 54.7384C20.7248 52.5454 22.5595 50.689 24.3725 48.8326C25.2193 47.9641 26.1964 47.6601 27.2929 48.268C28.4654 48.9194 28.6933 50.5262 27.5969 51.6661C25.1542 54.2173 22.6464 56.7034 20.0626 59.1027C19.1289 59.9712 17.9456 59.8083 17.0011 58.8855C15.5355 57.4525 14.0699 56.0195 12.6477 54.5539C11.6706 53.5442 11.5729 52.3717 12.5608 51.373C13.5922 50.3199 14.7538 50.5696 15.7092 51.5575C16.6537 52.5237 17.5113 53.5768 18.5644 54.7493V54.7384Z" fill="var(--fill-0, #F49B39)"/>
<path id="Vector_9" d="M44.1309 55.4223C41.5036 55.4223 38.8764 55.444 36.2492 55.4223C34.599 55.4114 33.8282 54.6733 33.7956 53.2402C33.7739 51.7529 34.4904 51.0255 36.1623 51.0146C41.4711 50.9821 46.7798 51.0038 52.0886 51.0038C53.5216 51.0038 54.3467 51.6661 54.3575 53.1642C54.3684 54.6516 53.6193 55.4006 51.9908 55.4223C49.3636 55.4549 46.7364 55.4223 44.1091 55.4223H44.1309Z" fill="var(--fill-0, #F49B39)"/>
<path id="Vector_10" d="M44.0443 36.9015C41.4279 36.9015 38.8007 36.8798 36.1843 36.9015C34.7513 36.9232 33.8828 36.3695 33.8176 34.8605C33.7633 33.3515 34.4799 32.5155 36.0757 32.5047C41.4279 32.4613 46.7909 32.483 52.1431 32.4938C53.6196 32.4938 54.3578 33.2972 54.3361 34.7302C54.3144 36.1741 53.5327 36.9124 52.0671 36.9124C49.3856 36.9124 46.715 36.9124 44.0334 36.9124L44.0443 36.9015Z" fill="var(--fill-0, #F49B39)"/>
<path id="Vector_11" d="M20.0297 73.5416C18.5533 73.5416 17.0659 73.5742 15.5895 73.5416C13.9176 73.4982 12.984 72.5863 12.9514 71.0664C12.9188 69.5031 13.809 68.6129 15.5352 68.602C18.6076 68.5694 21.6799 68.5694 24.7522 68.602C26.4458 68.6237 27.5206 69.5465 27.5857 70.9362C27.6509 72.3583 26.511 73.4548 24.8065 73.5525C24.014 73.5959 23.2106 73.5742 22.4181 73.5742C21.6256 73.5742 20.8222 73.5742 20.0297 73.5742V73.5416Z" fill="var(--fill-0, #F49B39)"/>
<path id="Vector_12" d="M45.0103 68.5802V73.509C41.9488 73.509 38.8439 73.6284 35.7498 73.4547C34.447 73.3787 33.7414 72.2822 33.8391 70.8601C33.9259 69.5356 34.5882 68.6345 35.9127 68.6019C38.909 68.5259 41.9162 68.5802 45.0103 68.5802Z" fill="var(--fill-0, #F49B39)"/>
</g>
</svg>
