<svg preserveAspectRatio="none" width="100%" height="100%" overflow="visible" style="display: block;" viewBox="0 0 168 34.2748" fill="none" xmlns="http://www.w3.org/2000/svg">
<g id="Stora logo">
<g id="Group 2">
<path id="Vector" d="M51.7201 33.9517C49.4131 33.9517 47.215 33.6399 45.1372 33.0161C44.0287 32.6817 43.0443 32.3097 42.1876 31.8964C41.0604 31.3516 40.6245 29.9764 41.2107 28.8755L41.2595 28.7816C41.8231 27.7182 43.1307 27.3124 44.2241 27.8272C44.9831 28.1841 45.821 28.5073 46.7341 28.7966C48.4812 29.3527 50.266 29.6307 52.0846 29.6307C54.4254 29.6307 56.1163 29.3001 57.1458 28.6425C58.1753 27.985 58.6938 27.0644 58.6938 25.8846C58.6938 25.0167 58.3782 24.3403 57.7507 23.8519C57.1195 23.3672 56.2891 23.0027 55.2596 22.7585C54.2263 22.5143 53.0803 22.3001 51.8216 22.1084C50.5628 21.9168 49.3041 21.6763 48.0454 21.3795C46.7867 21.0864 45.6331 20.6694 44.5811 20.1283C43.5328 19.591 42.6911 18.8433 42.0636 17.8889C41.4324 16.9345 41.1205 15.6608 41.1205 14.0601C41.1205 12.4595 41.5939 10.934 42.537 9.68654C43.4802 8.43533 44.8178 7.47345 46.5499 6.79712C48.2821 6.12079 50.3374 5.78262 52.7158 5.78262C54.5344 5.78262 56.3793 6.00055 58.2505 6.43265C59.1184 6.63555 59.915 6.87602 60.6364 7.15407C61.8763 7.63501 62.3911 9.10415 61.7599 10.2652C61.1925 11.306 59.9187 11.6967 58.8291 11.212C58.1528 10.9115 57.4576 10.6785 56.7513 10.5169C55.3873 10.2051 54.0234 10.0473 52.6595 10.0473C50.4576 10.0473 48.8119 10.4042 47.726 11.1143C46.6401 11.8283 46.0991 12.7375 46.0991 13.8497C46.0991 14.7853 46.4222 15.5067 47.0685 16.0102C47.7147 16.5137 48.5526 16.9045 49.5859 17.1825C50.6154 17.4606 51.7614 17.6935 53.0239 17.8852C54.2827 18.0768 55.5414 18.321 56.8001 18.6141C58.0588 18.9109 59.2048 19.3167 60.2381 19.839C61.2676 20.3613 62.1093 21.0902 62.7556 22.0258C63.4018 22.9614 63.725 24.2126 63.725 25.7757C63.725 27.4402 63.2365 28.883 62.2558 30.0967C61.2752 31.3103 59.8924 32.2571 58.1114 32.9335C56.3267 33.6098 54.1925 33.948 51.7088 33.948L51.7201 33.9517Z" fill="var(--fill-0, black)"/>
<path id="Vector_2" d="M65.4347 8.14225V8.05583C65.4347 6.94364 66.344 6.04187 67.4637 6.04187H81.1406C82.2603 6.04187 83.1696 6.94364 83.1696 8.05583V8.14225C83.1696 9.25443 82.2603 10.1562 81.1406 10.1562H67.4637C66.344 10.1562 65.4347 9.25443 65.4347 8.14225ZM78.9688 33.9517C76.1696 33.9517 74.0016 33.2077 72.4648 31.7123C70.9243 30.2206 70.1577 28.0864 70.1577 25.3097V2.01396C70.1577 0.901772 71.067 0 72.1867 0H73.1674C74.2871 0 75.1964 0.901772 75.1964 2.01396V25.0993C75.1964 26.591 75.5722 27.737 76.3236 28.5373C77.0751 29.3376 78.1497 29.7359 79.5512 29.7359C80.3666 29.7359 81.1105 29.6194 81.7869 29.3865C82.8126 29.0333 83.9399 29.4729 84.372 30.4611C84.8191 31.4831 84.3419 32.6667 83.3161 33.1176C82.9968 33.2603 82.6586 33.3806 82.3054 33.4858C81.2383 33.7976 80.1261 33.9555 78.9726 33.9555L78.9688 33.9517Z" fill="var(--fill-0, black)"/>
<path id="Vector_3" d="M103.049 33.9517C100.288 33.9517 97.8117 33.3468 95.6249 32.1294C93.4381 30.9157 91.7172 29.2399 90.4585 27.102C89.1998 24.9678 88.5685 22.5443 88.5685 19.839C88.5685 17.1337 89.1998 14.6763 90.4585 12.576C91.7172 10.4756 93.4306 8.81857 95.5986 7.60118C97.7666 6.38755 100.25 5.77885 103.049 5.77885C105.849 5.77885 108.287 6.37627 110.474 7.57488C112.661 8.77348 114.374 10.4305 115.614 12.5459C116.854 14.6651 117.478 17.0923 117.478 19.8352C117.478 22.5781 116.858 25.0091 115.614 27.1245C114.371 29.2437 112.657 30.9082 110.474 32.1219C108.287 33.3355 105.811 33.9442 103.049 33.9442V33.9517ZM103.049 29.5781C104.834 29.5781 106.435 29.1798 107.851 28.3795C109.268 27.5829 110.376 26.4444 111.184 24.9678C111.988 23.4949 112.39 21.7853 112.39 19.839C112.39 17.8926 111.988 16.1492 111.184 14.7101C110.38 13.2711 109.268 12.1514 107.851 11.351C106.435 10.5545 104.834 10.1524 103.049 10.1524C101.265 10.1524 99.6716 10.5507 98.2738 11.351C96.8761 12.1514 95.7564 13.2711 94.9185 14.7101C94.0806 16.153 93.6598 17.8626 93.6598 19.839C93.6598 21.8154 94.0806 23.4949 94.9185 24.9678C95.7564 26.4444 96.8761 27.5792 98.2738 28.3795C99.6716 29.1798 101.265 29.5781 103.049 29.5781Z" fill="var(--fill-0, black)"/>
<path id="Vector_4" d="M124.456 31.2464V8.43909C124.456 7.11649 125.539 6.04188 126.869 6.04188C128.203 6.04188 129.281 7.11273 129.281 8.43909V13.5416L129.014 12.4895C128.868 11.9147 128.943 11.3022 129.221 10.7799C130.006 9.29953 131.163 8.1385 132.689 7.29685C133.824 6.66936 135.124 6.23727 136.585 6.00055C137.115 5.91413 138.347 6.08697 138.892 6.89105C139.167 7.29685 139.313 7.95439 139.403 8.36394C139.46 8.61945 139.486 8.81483 139.535 9.20936C139.636 10.021 139.674 10.4305 139.475 10.5695C139.392 10.6296 139.339 10.5883 138.802 10.577C138.618 10.5733 138.434 10.577 138.25 10.577C135.556 10.577 133.422 11.3774 131.851 12.9743C130.277 14.5711 129.491 16.8782 129.491 19.8991V31.2502C129.491 32.5728 128.409 33.6474 127.079 33.6474H126.869C125.535 33.6474 124.456 32.5765 124.456 31.2502V31.2464Z" fill="var(--fill-0, black)"/>
<path id="Vector_5" d="M154.098 33.9517C152.035 33.9517 150.224 33.606 148.668 32.9109C147.113 32.2158 145.914 31.2539 145.076 30.0215C144.238 28.7891 143.817 27.3913 143.817 25.8282C143.817 24.2652 144.174 22.9839 144.892 21.7665C145.61 20.5529 146.782 19.5797 148.409 18.8508C150.036 18.1218 152.23 17.7574 154.992 17.7574H163.807V21.3494H155.202C152.685 21.3494 150.987 21.7665 150.115 22.6006C149.07 23.5964 148.649 24.84 148.852 26.3317C148.927 26.8765 149.119 27.4138 149.438 27.861C150.506 29.3564 152.339 30.1004 154.939 30.1004C156.829 30.1004 158.479 29.6833 159.899 28.8492C161.316 28.015 162.338 26.8014 162.969 25.2045L163.965 28.6425C163.299 30.2732 162.127 31.5658 160.448 32.5239C158.768 33.4783 156.653 33.9555 154.101 33.9555L154.098 33.9517ZM163.224 31.2727V27.8084L162.961 26.715V16.7692C162.961 14.65 162.341 13.0118 161.098 11.847C159.854 10.686 157.994 10.1036 155.51 10.1036C153.865 10.1036 152.257 10.3741 150.682 10.9114C149.897 11.182 149.168 11.4938 148.503 11.8545C147.455 12.4219 146.147 12.095 145.568 11.058L145.538 11.0054C144.978 10.0021 145.317 8.72839 146.32 8.15351C147.323 7.57863 148.503 7.07139 149.765 6.69189C151.776 6.0832 153.883 5.77885 156.089 5.77885C159.899 5.77885 162.837 6.69941 164.904 8.54053C166.967 10.3816 168 13.1922 168 16.9758V31.2689C168 32.5765 166.933 33.6398 165.614 33.6398C164.295 33.6398 163.228 32.5803 163.228 31.2689L163.224 31.2727Z" fill="var(--fill-0, black)"/>
</g>
<g id="Vector_6">
<path d="M12.6776 22.9839H11.8021C11.5053 22.9839 11.261 23.2244 11.261 23.5249V29.1723C11.261 29.6382 10.7087 29.8862 10.3593 29.5743C8.05222 27.504 5.74143 25.4299 3.43439 23.3596C3.20519 23.1567 3.19392 22.8035 3.40809 22.5818C6.55678 19.328 9.70172 16.0703 12.8504 12.8164C13.0571 12.606 13.0533 12.2678 12.8429 12.0574C8.96151 8.1798 5.08013 4.30594 1.19874 0.428326C0.860577 0.0901617 0.28194 0.326877 0.278182 0.807822L0.191762 11.8883C0.191762 12.1889 0.432235 12.4332 0.732826 12.4332H1.66466C1.96149 12.4332 2.20572 12.1927 2.20572 11.8921V5.42188C2.20572 4.9447 2.7806 4.70047 3.12253 5.03487L10.3555 12.0499C10.5734 12.2603 10.5734 12.606 10.363 12.8202L0.593802 22.5818C0.375874 22.7998 0.383389 23.1567 0.61259 23.3634C4.51652 26.8916 8.41669 30.4197 12.3206 33.9442C12.6701 34.2598 13.2224 34.0118 13.2224 33.5421V23.5212C13.2224 23.2244 12.9819 22.9801 12.6813 22.9801L12.6776 22.9839Z" fill="var(--fill-0, #F49B39)"/>
<path d="M17.3255 22.9839H18.201C18.4978 22.9839 18.742 23.2244 18.742 23.5249V29.1723C18.742 29.6382 19.2944 29.8862 19.6438 29.5743C21.9508 27.504 24.2616 25.4299 26.5687 23.3596C26.7979 23.1567 26.8091 22.8035 26.595 22.5818C23.4463 19.328 20.3013 16.0703 17.1526 12.8164C16.946 12.606 16.9498 12.2678 17.1602 12.0574C21.0415 8.1798 24.9229 4.30594 28.8043 0.428326C29.1425 0.0901617 29.7211 0.326877 29.7249 0.807822L29.8113 11.8883C29.8113 12.1889 29.5708 12.4332 29.2702 12.4332H28.3384C28.0416 12.4332 27.7973 12.1927 27.7973 11.8921V5.42188C27.7973 4.9447 27.2225 4.70047 26.8805 5.03487L19.6476 12.0499C19.4296 12.2603 19.4296 12.606 19.64 12.8202L29.4093 22.5818C29.6272 22.7998 29.6197 23.1567 29.3905 23.3634C25.4865 26.8916 21.5864 30.4197 17.6824 33.9442C17.333 34.2598 16.7807 34.0118 16.7807 33.5421V23.5212C16.7807 23.2244 17.0211 22.9801 17.3217 22.9801L17.3255 22.9839Z" fill="var(--fill-0, #F49B39)"/>
<path d="M17.3292 34.2748C17.2278 34.2748 17.1263 34.2523 17.0324 34.2109C16.7656 34.0907 16.6003 33.8389 16.6003 33.5459V23.5249C16.6003 23.1229 16.9272 22.796 17.3292 22.796H18.2047C18.6068 22.796 18.9337 23.1229 18.9337 23.5249V29.1723C18.9337 29.3151 19.0126 29.4353 19.1441 29.4954C19.2756 29.5555 19.4146 29.533 19.5236 29.4353L26.4484 23.2206C26.5198 23.1567 26.5612 23.0665 26.5649 22.9689C26.5649 22.8712 26.5349 22.781 26.4672 22.7133L17.0249 12.9479C16.7506 12.6624 16.7544 12.204 17.0324 11.9259L28.6766 0.296818C28.887 0.0864051 29.1913 0.0262877 29.4694 0.139009C29.7474 0.25173 29.9203 0.507232 29.9203 0.807822L30.0067 11.8883C30.0067 12.0837 29.9315 12.2678 29.7963 12.4069C29.661 12.5459 29.4731 12.621 29.2778 12.621H28.3459C27.9439 12.621 27.617 12.2941 27.617 11.8921V5.42188C27.617 5.27535 27.5381 5.15511 27.4028 5.09875C27.2675 5.04239 27.1248 5.06869 27.0196 5.17014L19.7866 12.1852C19.7189 12.2528 19.6814 12.3392 19.6814 12.4369C19.6814 12.5346 19.7189 12.621 19.7828 12.6887L29.552 22.4503C29.6948 22.5931 29.77 22.781 29.7662 22.9839C29.7625 23.1868 29.676 23.3709 29.5257 23.5062L17.8177 34.0869C17.6787 34.2109 17.5096 34.2748 17.333 34.2748H17.3292ZM17.3255 23.1717C17.1301 23.1717 16.9723 23.3296 16.9723 23.5249V33.5459C16.9723 33.6887 17.0512 33.8089 17.1827 33.869C17.3142 33.9291 17.457 33.9028 17.5622 33.8089L29.2702 23.2281C29.3416 23.1642 29.383 23.0741 29.3867 22.9764C29.3867 22.8787 29.3529 22.7885 29.2853 22.7171L19.516 12.9554C19.377 12.8164 19.3019 12.6323 19.3019 12.4369C19.3019 12.2415 19.3808 12.0574 19.5236 11.9184L26.7565 4.90337C26.9707 4.69671 27.2751 4.64035 27.5456 4.75683C27.8161 4.87331 27.989 5.12881 27.989 5.4294V11.8996C27.989 12.095 28.1468 12.2528 28.3422 12.2528H29.274C29.3679 12.2528 29.4581 12.2152 29.5257 12.1476C29.5934 12.08 29.6272 11.9898 29.6272 11.8959L29.5408 0.815336C29.5408 0.668798 29.4581 0.548562 29.3228 0.492201C29.1876 0.43584 29.0448 0.465901 28.9396 0.56735L17.2992 12.1964C17.1639 12.3317 17.1602 12.5534 17.2954 12.6924L26.7378 22.4578C26.8768 22.6006 26.9482 22.7885 26.9407 22.9914C26.9331 23.1905 26.8467 23.3746 26.7002 23.5099L19.7753 29.7246C19.5574 29.92 19.2568 29.9688 18.9938 29.8486C18.727 29.7284 18.5617 29.4766 18.5617 29.1836V23.5362C18.5617 23.3408 18.4039 23.183 18.2085 23.183H17.333L17.3255 23.1717Z" fill="var(--fill-0, #F49B39)"/>
<path d="M12.6738 34.2748C12.4972 34.2748 12.3281 34.2109 12.1891 34.0869L0.481081 23.5062C0.330785 23.3709 0.248123 23.1868 0.240608 22.9839C0.236851 22.781 0.311998 22.5931 0.454779 22.4503L10.224 12.6887C10.2916 12.621 10.3292 12.5308 10.3254 12.4369C10.3217 12.343 10.2879 12.2528 10.2202 12.1852L2.98726 5.17014C2.88205 5.06869 2.73927 5.04239 2.60401 5.09875C2.46874 5.15511 2.38984 5.27535 2.38984 5.42188V11.8921C2.38984 12.2941 2.06294 12.621 1.6609 12.621H0.729068C0.533684 12.621 0.349572 12.5459 0.210549 12.4069C0.0715253 12.2678 -0.003623 12.0837 0.000134395 11.8883L0.0865549 0.807822C0.0865549 0.507232 0.263152 0.25173 0.537441 0.139009C0.815488 0.0262877 1.11608 0.0864051 1.32649 0.296818L12.9706 11.9259C13.2487 12.204 13.2525 12.6624 12.9782 12.9479L3.53584 22.7133C3.46821 22.781 3.43439 22.8749 3.43815 22.9689C3.43815 23.0665 3.48324 23.153 3.55463 23.2206L10.4795 29.4353C10.5847 29.5292 10.7275 29.5518 10.859 29.4954C10.9905 29.4353 11.0694 29.3151 11.0694 29.1723V23.5249C11.0694 23.1229 11.3963 22.796 11.7983 22.796H12.6738C13.0759 22.796 13.4027 23.1229 13.4027 23.5249V33.5459C13.4027 33.8389 13.2374 34.0945 12.9706 34.2109C12.873 34.256 12.7715 34.2748 12.6738 34.2748ZM2.74679 4.6892C2.9309 4.6892 3.11125 4.76059 3.25028 4.89585L10.4833 11.9109C10.626 12.0461 10.7012 12.2303 10.7049 12.4294C10.7049 12.6248 10.6298 12.8089 10.4908 12.9479L0.721553 22.7096C0.65392 22.7772 0.616347 22.8712 0.620104 22.9689C0.620104 23.0665 0.665193 23.1567 0.736583 23.2206L12.4446 33.8014C12.5498 33.8991 12.6926 33.9216 12.8241 33.8615C12.9556 33.8051 13.0345 33.6849 13.0345 33.5384V23.5174C13.0345 23.322 12.8767 23.1642 12.6813 23.1642H11.8059C11.6105 23.1642 11.4527 23.322 11.4527 23.5174V29.1648C11.4527 29.4578 11.2873 29.7133 11.0206 29.8298C10.7538 29.9501 10.4532 29.9012 10.239 29.7058L3.31415 23.4911C3.16386 23.3559 3.0812 23.1755 3.07368 22.9726C3.06617 22.7735 3.13756 22.5856 3.27658 22.4391L12.7189 12.6736C12.8504 12.5346 12.8504 12.3129 12.7151 12.1777L1.07099 0.548562C0.965784 0.443356 0.823003 0.417055 0.687737 0.473416C0.552471 0.529776 0.469808 0.650013 0.469808 0.796551L0.383388 11.8771C0.383388 11.971 0.417205 12.0612 0.484838 12.1288C0.552471 12.1964 0.638891 12.234 0.736583 12.234H1.66842C1.8638 12.234 2.02161 12.0762 2.02161 11.8808V5.41061C2.02161 5.11378 2.19069 4.85452 2.46498 4.73804C2.55892 4.69671 2.65661 4.67792 2.7543 4.67792L2.74679 4.6892Z" fill="var(--fill-0, #F49B39)"/>
</g>
</g>
</svg>
